<svg id="Layer_1" data-name="Layer 1" xmlns="http://www.w3.org/2000/svg" viewBox="0 0 229.59 230.83"><defs><style>.cls-1{fill:#fff;}.cls-1,.cls-13{stroke:#345366;stroke-miterlimit:10;}.cls-2,.cls-3{fill:#345366;}.cls-3{font-size:7.58px;font-family:BellMTBold, Bell MT;}.cls-4{letter-spacing:-0.03em;}.cls-5{letter-spacing:-0.02em;}.cls-6{letter-spacing:0em;}.cls-7{letter-spacing:-0.1em;}.cls-8{letter-spacing:-0.07em;}.cls-9{letter-spacing:-0.04em;}.cls-10{font-size:40.07px;fill:#dd6f27;}.cls-10,.cls-11,.cls-12{font-family:BrightSunlist, Bright Sunlist;}.cls-11{font-size:56.45px;}.cls-11,.cls-12{fill:#dc6f26;}.cls-12{font-size:40.07px;}.cls-13{fill:none;stroke-width:1.5px;}</style></defs><title>LOGO BOA ACAO png</title><circle class="cls-1" cx="96.48" cy="110.19" r="24.17"/><circle class="cls-2" cx="95.54" cy="110.22" r="11.51"/><text class="cls-3" transform="translate(30.55 142.74)">O DESTINO CE<tspan class="cls-4" x="55.21" y="0">R</tspan><tspan class="cls-5" x="60.27" y="0">T</tspan><tspan class="cls-6" x="65.82" y="0">O </tspan><tspan class="cls-7" x="73.68" y="0">P</tspan><tspan x="77.82" y="0">ARA A S</tspan><tspan class="cls-8" x="107.12" y="0">U</tspan><tspan x="112.36" y="0">A D</tspan><tspan class="cls-9" x="125.67" y="0">O</tspan><tspan x="131.22" y="0">AÇÃO</tspan></text><text class="cls-10" transform="translate(30.55 116.48)">bo</text><text class="cls-11" transform="translate(78.27 126.27)">A</text><text class="cls-12" transform="translate(113.59 123.07)">ção</text><line class="cls-13" x1="118.1" y1="92.27" x2="183.25" y2="92.27"/><polygon class="cls-2" points="123.07 98.4 124.1 97.3 118.68 92.27 124.1 87.23 123.07 86.13 116.48 92.27 123.07 98.4"/><line class="cls-13" x1="30.55" y1="126.27" x2="74.38" y2="126.27"/><polygon class="cls-2" points="69.41 132.4 68.39 131.3 73.81 126.27 68.39 121.23 69.41 120.13 76.01 126.27 69.41 132.4"/></svg>