<svg id="Layer_1" data-name="Layer 1" xmlns="http://www.w3.org/2000/svg" viewBox="0 0 229.59 230.83"><defs><style>.cls-1{font-size:7.58px;font-family:BellMTBold, Bell MT;}.cls-1,.cls-12{fill:#345366;}.cls-2{letter-spacing:-0.03em;}.cls-3{letter-spacing:-0.02em;}.cls-4{letter-spacing:0em;}.cls-5{letter-spacing:-0.1em;}.cls-6{letter-spacing:-0.07em;}.cls-7{letter-spacing:-0.04em;}.cls-8{font-size:40.07px;fill:#dd6f27;}.cls-10,.cls-8,.cls-9{font-family:BrightSunlist, Bright Sunlist;}.cls-9{font-size:56.45px;}.cls-10,.cls-9{fill:#dc6f26;}.cls-10{font-size:40.07px;}.cls-11{fill:none;stroke:#345366;stroke-miterlimit:10;stroke-width:1.5px;}</style></defs><title>LOGO BOA ACAO png</title><text class="cls-1" transform="translate(39.84 140.65)">O DESTINO CE<tspan class="cls-2" x="55.21" y="0">R</tspan><tspan class="cls-3" x="60.27" y="0">T</tspan><tspan class="cls-4" x="65.82" y="0">O </tspan><tspan class="cls-5" x="73.68" y="0">P</tspan><tspan x="77.82" y="0">ARA A S</tspan><tspan class="cls-6" x="107.12" y="0">U</tspan><tspan x="112.36" y="0">A D</tspan><tspan class="cls-7" x="125.67" y="0">O</tspan><tspan x="131.22" y="0">AÇÃO</tspan></text><text class="cls-8" transform="translate(39.84 114.38)">bo</text><text class="cls-9" transform="translate(87.56 124.18)">A</text><text class="cls-10" transform="translate(122.89 120.97)">ção</text><line class="cls-11" x1="127.4" y1="90.17" x2="192.55" y2="90.17"/><polygon class="cls-12" points="132.37 96.31 133.39 95.21 127.97 90.18 133.39 85.14 132.37 84.04 125.77 90.18 132.37 96.31"/><line class="cls-11" x1="39.84" y1="124.18" x2="83.68" y2="124.18"/><polygon class="cls-12" points="78.71 130.31 77.68 129.21 83.1 124.18 77.68 119.14 78.71 118.04 85.3 124.18 78.71 130.31"/></svg>