<svg id="Layer_1" data-name="Layer 1" xmlns="http://www.w3.org/2000/svg" viewBox="0 0 110.63 105.93"><defs><style>.cls-1{fill:#dc6f26;}.cls-2{fill:#fff;}.cls-3{fill:#345366;}</style></defs><title>LOGO BOA ACAO curvas</title><path class="cls-1" d="M17,39.69V11.79c0-2.29-2.2-2.46-2.2-3.54,0-.49.76-.4,1-.4,3.23,0,7.17-1.3,9.86-1.3.71,0,1,.58,1,1.21V20.83a8.14,8.14,0,0,1,6.27-2.46c6.67,0,9.4,5,9.4,11.11,0,7.34-3.85,11.73-11.28,11.73a13.63,13.63,0,0,1-5.55-1.07,5.09,5.09,0,0,0-2-.45c-1.84,0-3.5,1.07-5.47,1.07A.94.94,0,0,1,17,39.69Zm9.67-1.57a2.9,2.9,0,0,0,1.17.23c2.91,0,4.88-3.32,4.88-9.72,0-4-.76-7-2.83-7-1.7,0-3.22,2.06-3.22,6.23Z"/><path class="cls-1" d="M57.25,18.37c8.06,0,13.44,4.39,13.44,11.24s-5.38,11.6-13.44,11.6S43.82,36.64,43.82,29.79,49.19,18.37,57.25,18.37Zm0,20.65c2,0,3.32-3.85,3.32-9.41s-1.3-9-3.32-9-3.36,3.71-3.36,9.22S55.24,39,57.25,39Z"/><path class="cls-1" d="M87.93,40.76c-1.39,0-2.06-.62-2.06-2a7.7,7.7,0,0,1-6,2.46c-4.35,0-7.93-2.37-7.93-6,0-4,4.21-6.68,10.34-6.68a17.4,17.4,0,0,1,3.63.36c.14-2.69.49-8.28-2.91-8.28-3.9,0-.63,7.39-6.36,7.39-.81,0-3.13-.14-3.13-3.32,0-3.67,3.27-6.27,10.3-6.27,8.51,0,11.73,3.85,11.73,11.29v7.16c0,2.33,2.19,2.42,2.19,3.54,0,.27-.13.4-.44.4ZM85.87,30.15A3,3,0,0,0,85,30c-1.93,0-3.41,1.74-3.41,4.56,0,1.84.63,3.36,1.61,3.36s2.69-2.06,2.69-6.22Z"/><path class="cls-1" d="M20.48,94.51c-1.39,0-2.06-.63-2.06-2A7.74,7.74,0,0,1,12.37,95c-4.34,0-7.92-2.37-7.92-6,0-4,4.21-6.67,10.34-6.67a17.4,17.4,0,0,1,3.63.36c.13-2.69.49-8.29-2.91-8.29-3.9,0-.63,7.39-6.36,7.39C8.34,81.7,6,81.57,6,78.39c0-3.67,3.27-6.27,10.3-6.27,8.51,0,11.74,3.85,11.74,11.29v7.16c0,2.33,2.19,2.42,2.19,3.54,0,.27-.13.4-.45.4ZM18.42,83.9a3.07,3.07,0,0,0-.9-.14c-1.92,0-3.4,1.75-3.4,4.57,0,1.84.63,3.36,1.61,3.36s2.69-2.06,2.69-6.22Z"/><path class="cls-1" d="M42.07,95.05s0-.09,0-.14c-6.67-.53-10.92-4.65-10.92-11.5,0-7.44,5-11.29,12.8-11.29,6.41,0,9.68,2.6,9.68,6.27,0,3.18-2.33,3.31-3.14,3.31-5.73,0-2.46-7.39-5.69-7.39s-3.58,7.3-3.58,9.23.32,7,5.15,7c4.53,0,4.12-4.48,6.18-4.48,1.08,0,1.35,1.21,1.35,1.93,0,2-2.2,6.94-10.35,6.94h-.27s0,.09,0,.13l-.09.23A2.51,2.51,0,0,1,45.29,98a2.55,2.55,0,0,1-2.73,2.69,2.47,2.47,0,0,1-2.64-2.11c-.09-.4.13-.58.58-.58s.54.18.72.63.49.71.76.71c1,0,1.52-.49,1.52-1.3a.9.9,0,0,0-.8-1c-.9-.13-1.12-.45-.86-1.25Z"/><path class="cls-1" d="M71.36,94.51c-1.39,0-2.06-.63-2.06-2a7.74,7.74,0,0,1-6,2.46c-4.34,0-7.92-2.37-7.92-6,0-4,4.21-6.67,10.34-6.67a17.4,17.4,0,0,1,3.63.36c.13-2.69.49-8.29-2.91-8.29-3.9,0-.63,7.39-6.36,7.39-.81,0-3.14-.13-3.14-3.31,0-3.67,3.27-6.27,10.3-6.27,8.51,0,11.74,3.85,11.74,11.29v7.16c0,2.33,2.19,2.42,2.19,3.54,0,.27-.13.4-.45.4ZM62.9,68.22c-.32,0-.45-.13-.41-.44.18-1.35,1-3,2.91-3s4.57,1.66,6,1.66a1.12,1.12,0,0,0,1.25-1,.48.48,0,0,1,.5-.4c.31,0,.44.13.4.4-.14,1.43-.81,3.23-2.82,3.23S66.16,67,64.64,67a1.21,1.21,0,0,0-1.21.81A.52.52,0,0,1,62.9,68.22ZM69.3,83.9a3.07,3.07,0,0,0-.9-.14c-1.92,0-3.4,1.75-3.4,4.57,0,1.84.63,3.36,1.61,3.36s2.69-2.06,2.69-6.22Z"/><path class="cls-1" d="M95.41,72.12c8.06,0,13.44,4.39,13.44,11.24S103.47,95,95.41,95,82,90.39,82,83.54,87.35,72.12,95.41,72.12Zm0,20.65c2,0,3.32-3.86,3.32-9.41s-1.3-9-3.32-9S92.05,78,92.05,83.54,93.4,92.77,95.41,92.77Z"/><circle class="cls-2" cx="56.2" cy="54.88" r="7.71"/><path class="cls-3" d="M56.21,63.08a5.24,5.24,0,0,1-.56,0,8.2,8.2,0,1,1,6.73-13.58h0a8.2,8.2,0,0,1-6.17,13.6Zm0-15.41A7.21,7.21,0,1,0,60.94,60.3a7.22,7.22,0,0,0,.69-10.17,7.14,7.14,0,0,0-5-2.44A4,4,0,0,0,56.19,47.67Z"/><circle class="cls-3" cx="56.2" cy="54.88" r="2.81"/><rect class="cls-3" x="7.21" y="58.18" width="39.02" height="1.5"/><polygon class="cls-3" points="41.27 65.07 40.24 63.97 45.66 58.94 40.24 53.9 41.27 52.8 47.86 58.94 41.27 65.07"/><rect class="cls-3" x="65.29" y="47.49" width="39.02" height="1.5"/><polygon class="cls-3" points="70.26 54.37 71.28 53.27 65.86 48.24 71.28 43.2 70.26 42.1 63.66 48.24 70.26 54.37"/></svg>