<svg id="Layer_1" data-name="Layer 1" xmlns="http://www.w3.org/2000/svg" viewBox="0 0 113.71 110.67"><defs><style>.cls-1{fill:#345366;}.cls-2{fill:#dc6f26;}</style></defs><title>LOGO BOA ACAO curvas</title><rect class="cls-1" x="5.33" y="68.21" width="50.97" height="1.5"/><polygon class="cls-1" points="10.3 75.09 11.32 73.99 5.9 68.96 11.32 63.92 10.3 62.83 3.7 68.96 10.3 75.09"/><rect class="cls-1" x="55.28" y="60.15" width="50.58" height="1.5"/><polygon class="cls-1" points="100.89 67.04 99.87 65.94 105.28 60.91 99.87 55.87 100.89 54.77 107.49 60.91 100.89 67.04"/><path class="cls-2" d="M16.07,49.71V21.81c0-2.28-2.19-2.46-2.19-3.54,0-.49.76-.4,1-.4,3.22,0,7.16-1.3,9.85-1.3.72,0,1,.58,1,1.21V30.86A8.16,8.16,0,0,1,32,28.4c6.68,0,9.41,5,9.41,11.1,0,7.35-3.85,11.74-11.29,11.74a13.67,13.67,0,0,1-5.55-1.08,5,5,0,0,0-2-.45c-1.84,0-3.49,1.08-5.46,1.08A1,1,0,0,1,16.07,49.71Zm9.67-1.56a3.13,3.13,0,0,0,1.17.22c2.91,0,4.88-3.31,4.88-9.72,0-4-.76-7-2.82-7-1.7,0-3.23,2-3.23,6.22Z"/><path class="cls-2" d="M56.33,28.4c8.07,0,13.44,4.38,13.44,11.24s-5.37,11.6-13.44,11.6S42.9,46.67,42.9,39.82,48.27,28.4,56.33,28.4Zm0,20.64c2,0,3.32-3.85,3.32-9.4s-1.3-9-3.32-9S53,34.31,53,39.82,54.32,49,56.33,49Z"/><path class="cls-2" d="M87,50.79c-1.39,0-2.06-.63-2.06-2a7.72,7.72,0,0,1-6,2.47c-4.34,0-7.93-2.38-7.93-6.05,0-4,4.21-6.67,10.35-6.67a16.81,16.81,0,0,1,3.63.36c.13-2.69.49-8.29-2.92-8.29-3.89,0-.62,7.39-6.36,7.39-.8,0-3.13-.14-3.13-3.31,0-3.68,3.27-6.27,10.3-6.27,8.51,0,11.73,3.85,11.73,11.28v7.17c0,2.33,2.2,2.42,2.2,3.53,0,.27-.14.41-.45.41ZM85,40.17a3.16,3.16,0,0,0-.9-.13c-1.93,0-3.4,1.75-3.4,4.57,0,1.83.62,3.36,1.61,3.36S85,45.91,85,41.74Z"/><path class="cls-2" d="M19.56,104.54c-1.39,0-2.06-.63-2.06-2a7.7,7.7,0,0,1-6,2.46c-4.35,0-7.93-2.37-7.93-6,0-4,4.21-6.68,10.35-6.68a17.37,17.37,0,0,1,3.62.36c.14-2.68.5-8.28-2.91-8.28-3.89,0-.63,7.39-6.36,7.39-.8,0-3.13-.14-3.13-3.32,0-3.67,3.27-6.27,10.3-6.27,8.51,0,11.73,3.85,11.73,11.29v7.16c0,2.33,2.2,2.42,2.2,3.54,0,.27-.14.41-.45.41ZM17.5,93.92a3,3,0,0,0-.89-.13c-1.93,0-3.41,1.74-3.41,4.57,0,1.83.63,3.35,1.62,3.35s2.68-2.06,2.68-6.22Z"/><path class="cls-2" d="M41.15,105.07s.05-.09.05-.13c-6.68-.54-10.93-4.66-10.93-11.51,0-7.44,5-11.29,12.81-11.29,6.4,0,9.67,2.6,9.67,6.27,0,3.18-2.33,3.32-3.13,3.32-5.74,0-2.47-7.39-5.69-7.39s-3.58,7.3-3.58,9.22.31,7,5.15,7c4.52,0,4.12-4.47,6.18-4.47C52.75,96.12,53,97.33,53,98c0,2-2.19,6.94-10.35,6.94h-.26s0,.09,0,.14l-.09.22A2.52,2.52,0,0,1,44.38,108a2.55,2.55,0,0,1-2.74,2.69,2.48,2.48,0,0,1-2.64-2.1c-.09-.41.14-.59.58-.59s.54.18.72.63.49.72.76.72c1,0,1.52-.5,1.52-1.3a.91.91,0,0,0-.8-1c-.9-.13-1.12-.44-.85-1.25Z"/><path class="cls-2" d="M70.44,104.54c-1.39,0-2.06-.63-2.06-2a7.7,7.7,0,0,1-6,2.46c-4.35,0-7.93-2.37-7.93-6,0-4,4.21-6.68,10.34-6.68a17.4,17.4,0,0,1,3.63.36c.14-2.68.5-8.28-2.91-8.28-3.89,0-.63,7.39-6.36,7.39-.8,0-3.13-.14-3.13-3.32,0-3.67,3.27-6.27,10.3-6.27C74.79,82.14,78,86,78,93.43v7.16c0,2.33,2.2,2.42,2.2,3.54,0,.27-.14.41-.45.41ZM62,78.25c-.31,0-.45-.14-.4-.45.17-1.34,1-3,2.91-3s4.56,1.66,6,1.66a1.13,1.13,0,0,0,1.26-1c.09-.27.22-.41.49-.41s.45.14.4.41c-.13,1.43-.8,3.22-2.82,3.22S65.25,77,63.73,77a1.2,1.2,0,0,0-1.21.81A.53.53,0,0,1,62,78.25Zm6.4,15.67a3,3,0,0,0-.89-.13c-1.93,0-3.41,1.74-3.41,4.57,0,1.83.63,3.35,1.62,3.35s2.68-2.06,2.68-6.22Z"/><path class="cls-2" d="M94.5,82.14c8.06,0,13.43,4.39,13.43,11.24S102.56,105,94.5,105s-13.44-4.56-13.44-11.42S86.43,82.14,94.5,82.14Zm0,20.65c2,0,3.31-3.85,3.31-9.41s-1.3-9-3.31-9-3.36,3.71-3.36,9.22S92.48,102.79,94.5,102.79Z"/></svg>