<svg id="Layer_1" data-name="Layer 1" xmlns="http://www.w3.org/2000/svg" viewBox="0 0 123.36 105.93"><defs><style>.cls-1{fill:#dc6f26;}.cls-2{fill:#fff;}.cls-3{fill:#345366;}</style></defs><title>LOGO BOA ACAO curvas</title><path class="cls-1" d="M23.19,38.57V10.67c0-2.29-2.2-2.47-2.2-3.54,0-.5.77-.41,1-.41,3.23,0,7.17-1.29,9.86-1.29.71,0,1,.58,1,1.2V19.71a8.14,8.14,0,0,1,6.27-2.46c6.67,0,9.41,5,9.41,11.11,0,7.34-3.85,11.73-11.29,11.73A13.47,13.47,0,0,1,31.7,39a5.22,5.22,0,0,0-2-.44c-1.84,0-3.5,1.07-5.47,1.07A1,1,0,0,1,23.19,38.57ZM32.86,37a3.13,3.13,0,0,0,1.17.22c2.91,0,4.88-3.31,4.88-9.72,0-4-.76-7-2.82-7-1.71,0-3.23,2.06-3.23,6.22Z"/><path class="cls-1" d="M63.45,17.25c8.06,0,13.44,4.39,13.44,11.24s-5.38,11.6-13.44,11.6S50,35.52,50,28.67,55.39,17.25,63.45,17.25Zm0,20.64c2,0,3.32-3.85,3.32-9.4s-1.3-9-3.32-9-3.36,3.72-3.36,9.23S61.44,37.89,63.45,37.89Z"/><path class="cls-1" d="M94.13,39.64c-1.38,0-2.06-.63-2.06-2a7.73,7.73,0,0,1-6,2.46c-4.35,0-7.93-2.37-7.93-6.05,0-4,4.21-6.67,10.35-6.67a16.72,16.72,0,0,1,3.62.36c.14-2.69.5-8.29-2.91-8.29-3.89,0-.62,7.39-6.36,7.39-.8,0-3.13-.13-3.13-3.31,0-3.67,3.27-6.27,10.3-6.27,8.51,0,11.73,3.85,11.73,11.28V35.7c0,2.33,2.2,2.42,2.2,3.54,0,.27-.14.4-.45.4ZM92.07,29a3.06,3.06,0,0,0-.89-.14c-1.93,0-3.41,1.75-3.41,4.57,0,1.84.63,3.36,1.62,3.36s2.68-2.06,2.68-6.23Z"/><path class="cls-1" d="M26.68,93.39c-1.39,0-2.06-.63-2.06-2a7.7,7.7,0,0,1-6,2.47c-4.35,0-7.93-2.38-7.93-6,0-4,4.21-6.67,10.34-6.67a16.75,16.75,0,0,1,3.63.36c.13-2.69.49-8.29-2.91-8.29-3.9,0-.63,7.39-6.36,7.39-.81,0-3.14-.13-3.14-3.31,0-3.68,3.27-6.27,10.31-6.27,8.5,0,11.73,3.85,11.73,11.28v7.17c0,2.33,2.19,2.42,2.19,3.54,0,.26-.13.4-.44.4ZM24.62,82.77a3.43,3.43,0,0,0-.9-.13c-1.92,0-3.4,1.75-3.4,4.57,0,1.83.63,3.36,1.61,3.36s2.69-2.06,2.69-6.23Z"/><path class="cls-1" d="M48.27,93.93c0-.05,0-.09,0-.14-6.67-.54-10.92-4.66-10.92-11.51,0-7.43,5-11.28,12.81-11.28,6.4,0,9.67,2.59,9.67,6.27,0,3.18-2.33,3.31-3.14,3.31-5.73,0-2.46-7.39-5.68-7.39s-3.59,7.3-3.59,9.23.32,7,5.15,7c4.53,0,4.12-4.48,6.18-4.48,1.08,0,1.35,1.21,1.35,1.93,0,2-2.2,6.94-10.35,6.94h-.27s0,.09,0,.13l-.09.22a2.7,2.7,0,0,1-.63,5.33,2.47,2.47,0,0,1-2.64-2.1c-.09-.4.13-.58.58-.58s.54.18.72.62.49.72.76.72c1,0,1.52-.49,1.52-1.3a.9.9,0,0,0-.8-1c-.9-.14-1.12-.45-.85-1.26Z"/><path class="cls-1" d="M77.56,93.39c-1.39,0-2.06-.63-2.06-2a7.7,7.7,0,0,1-6,2.47c-4.35,0-7.93-2.38-7.93-6,0-4,4.21-6.67,10.34-6.67a16.75,16.75,0,0,1,3.63.36c.14-2.69.49-8.29-2.91-8.29-3.9,0-.63,7.39-6.36,7.39-.81,0-3.13-.13-3.13-3.31,0-3.68,3.27-6.27,10.3-6.27,8.51,0,11.73,3.85,11.73,11.28v7.17c0,2.33,2.19,2.42,2.19,3.54,0,.26-.13.4-.44.4ZM69.1,67.1c-.32,0-.45-.13-.41-.45.18-1.34,1-3,2.91-3s4.57,1.66,6.05,1.66a1.12,1.12,0,0,0,1.25-1,.48.48,0,0,1,.5-.4c.31,0,.44.13.4.4C79.67,65.71,79,67.5,77,67.5s-4.61-1.65-6.14-1.65a1.2,1.2,0,0,0-1.21.8C69.54,67,69.37,67.1,69.1,67.1Zm6.4,15.67a3.42,3.42,0,0,0-.89-.13c-1.93,0-3.41,1.75-3.41,4.57,0,1.83.63,3.36,1.61,3.36s2.69-2.06,2.69-6.23Z"/><path class="cls-1" d="M101.61,71c8.06,0,13.44,4.39,13.44,11.24s-5.38,11.6-13.44,11.6S88.18,89.27,88.18,82.42,93.55,71,101.61,71Zm0,20.64c2,0,3.32-3.85,3.32-9.4s-1.3-9-3.32-9-3.36,3.72-3.36,9.23S99.6,91.64,101.61,91.64Z"/><circle class="cls-2" cx="62.4" cy="53.75" r="9.95"/><path class="cls-3" d="M62.41,64.2a10.45,10.45,0,1,1,7.86-17.33h0A10.45,10.45,0,0,1,62.41,64.2Zm0-19.9a9.45,9.45,0,1,0,7.13,3.23h0A9.47,9.47,0,0,0,62.39,44.3Z"/><circle class="cls-3" cx="62.4" cy="53.75" r="3.63"/><rect class="cls-3" x="11.47" y="57.13" width="39.02" height="1.5"/><polygon class="cls-3" points="45.52 64.01 44.5 62.91 49.91 57.88 44.5 52.84 45.52 51.74 52.12 57.88 45.52 64.01"/><rect class="cls-3" x="72.46" y="46.1" width="39.02" height="1.5"/><polygon class="cls-3" points="77.43 52.99 78.45 51.89 73.04 46.85 78.45 41.82 77.43 40.72 70.83 46.85 77.43 52.99"/></svg>