<svg id="Layer_1" data-name="Layer 1" xmlns="http://www.w3.org/2000/svg" viewBox="0 0 162.34 74.66"><defs><style>.cls-1{fill:#fff;}.cls-2{fill:#345366;}.cls-3{fill:#dd6f27;}.cls-4{fill:#dc6f26;}</style></defs><title>LOGO BOA ACAO curvas</title><circle class="cls-1" cx="71.49" cy="35.53" r="24.17"/><path class="cls-2" d="M71.51,60.19A24.66,24.66,0,1,1,87.73,54.1,24.62,24.62,0,0,1,71.51,60.19Zm-.05-48.33A23.68,23.68,0,0,0,53.67,51.11,23.67,23.67,0,0,0,89.32,20h0a23.53,23.53,0,0,0-16.24-8C72.54,11.87,72,11.86,71.46,11.86Z"/><circle class="cls-2" cx="70.56" cy="35.56" r="11.51"/><path class="cls-2" d="M8.54,63.13a2.72,2.72,0,0,1,1.31.3,2.39,2.39,0,0,1,.9.86,2.36,2.36,0,0,1,.34,1.24,2.56,2.56,0,0,1-.78,1.84,2.52,2.52,0,0,1-1.91.8,2.56,2.56,0,0,1-1.78-.66,2.29,2.29,0,0,1-.74-1.79,2.49,2.49,0,0,1,.76-1.83A2.59,2.59,0,0,1,8.54,63.13Zm1.29,2.51A3,3,0,0,0,9.45,64a1.12,1.12,0,0,0-1-.57,1.14,1.14,0,0,0-1,.57,3.07,3.07,0,0,0-.38,1.68,3.11,3.11,0,0,0,.37,1.67,1.09,1.09,0,0,0,1,.59,1.17,1.17,0,0,0,.94-.53A2.9,2.9,0,0,0,9.83,65.64Z"/><path class="cls-2" d="M16.34,68.16l-1.34,0H13.71a.78.78,0,0,1-.21,0,.11.11,0,0,1-.05-.09c0-.08.06-.11.16-.11a.76.76,0,0,0,.45-.11.57.57,0,0,0,.18-.38q0-.27.06-1.11c0-.55,0-1.06,0-1.52a4.38,4.38,0,0,0-.1-1.21c-.06-.15-.22-.23-.47-.24-.09,0-.13-.05-.13-.11s0-.1.12-.1l.48,0c.3,0,.51,0,.63,0l1.4,0a3.46,3.46,0,0,1,1.35.27,2.17,2.17,0,0,1,1,.88A2.55,2.55,0,0,1,19,65.72a2.52,2.52,0,0,1-.22,1.06,2.21,2.21,0,0,1-.65.83,2.27,2.27,0,0,1-.85.45A4,4,0,0,1,16.34,68.16Zm-.25-.27a1.53,1.53,0,0,0,1.23-.54,2.4,2.4,0,0,0,.45-1.56,2.75,2.75,0,0,0-.49-1.69,1.61,1.61,0,0,0-1.38-.67,1.08,1.08,0,0,0-.37,0,.19.19,0,0,0-.08.07s0,.3,0,.83l0,1.26c0,.31,0,.69,0,1.15a3.61,3.61,0,0,0,.05.71.48.48,0,0,0,.19.3A.94.94,0,0,0,16.09,67.89Z"/><path class="cls-2" d="M23.69,63.23c.08.39.15.77.23,1.16,0,.07,0,.1-.11.1s-.08,0-.13-.1a2.23,2.23,0,0,0-.7-.73,1.85,1.85,0,0,0-.91-.18,3.31,3.31,0,0,0-.64.06A12.56,12.56,0,0,0,21.36,65c0,.09,0,.24,0,.45h.28a1.25,1.25,0,0,0,.45-.07.65.65,0,0,0,.33-.31,2,2,0,0,0,.15-.3c0-.08.06-.12.11-.12s.11,0,.11.09,0,0,0,.06a10.68,10.68,0,0,0-.05,1.37,1.23,1.23,0,0,0,0,.29.2.2,0,0,1,0,.07c0,.07,0,.1-.12.1s-.09-.07-.12-.2a.79.79,0,0,0-.34-.52,1.59,1.59,0,0,0-.83-.19c0,.42,0,.69,0,.82,0,.56,0,.9,0,1a.38.38,0,0,0,.19.26,1.12,1.12,0,0,0,.56.1A1.86,1.86,0,0,0,24,67c0-.08.09-.12.14-.12s.1,0,.1.09a.44.44,0,0,1,0,.15L24,68.15H22.61c-.38,0-.73,0-1.06,0l-.76,0c-.21,0-.52,0-.94,0h-.12c-.11,0-.17,0-.17-.11s.05-.1.14-.1a.52.52,0,0,0,.48-.2,1.55,1.55,0,0,0,.13-.79l0-1.91c0-.65,0-1.05,0-1.2a.42.42,0,0,0-.13-.3,1,1,0,0,0-.39-.12c-.08,0-.12,0-.12-.11s0-.11.14-.11l.89,0Z"/><path class="cls-2" d="M27.45,63.36a.49.49,0,0,0,.09-.15c0-.07.08-.11.13-.11s.11,0,.12.16l.13,1,0,.13a.09.09,0,0,1-.1.1.12.12,0,0,1-.11,0,1.08,1.08,0,0,1-.13-.23,1.51,1.51,0,0,0-.52-.59,1.25,1.25,0,0,0-.74-.27.88.88,0,0,0-.6.21.66.66,0,0,0-.24.52.62.62,0,0,0,.23.45,2.27,2.27,0,0,0,.85.38,2.71,2.71,0,0,1,1.34.69,1.38,1.38,0,0,1,.35.92,1.42,1.42,0,0,1-.25.87,2,2,0,0,1-.61.56,1.89,1.89,0,0,1-.91.2,2.61,2.61,0,0,1-.66-.09,3.77,3.77,0,0,1-.69-.27A.75.75,0,0,0,25,68q-.06.15-.15.15c-.06,0-.1-.07-.11-.2l-.1-1.34a.66.66,0,0,1,0-.11c0-.08,0-.11.11-.11s.11.06.15.18a2.66,2.66,0,0,0,.62.93,1.26,1.26,0,0,0,.9.37,1,1,0,0,0,.7-.26.79.79,0,0,0,.27-.59.7.7,0,0,0-.25-.55,2.5,2.5,0,0,0-.89-.44,3.91,3.91,0,0,1-.93-.39,1.34,1.34,0,0,1-.49-.51,1.3,1.3,0,0,1-.18-.65,1.28,1.28,0,0,1,.45-1,1.76,1.76,0,0,1,1.22-.41A3.77,3.77,0,0,1,27.45,63.36Z"/><path class="cls-2" d="M28.8,63.16c1.28,0,2.23.05,2.85.05.46,0,1,0,1.54,0l.49,0h.25c0,.1,0,.31.07.62l0,.59c0,.09,0,.14-.12.14s-.12-.06-.18-.18a1.57,1.57,0,0,0-.36-.51,1.13,1.13,0,0,0-.51-.29,5.05,5.05,0,0,0-1-.07,13.9,13.9,0,0,0-.06,1.42q0,.87,0,1.68a8.24,8.24,0,0,0,.08,1,.44.44,0,0,0,.17.24,1.28,1.28,0,0,0,.54.11c.09,0,.14,0,.14.1s0,.11-.12.11h-.11l-.76,0H30.74l-.47,0H30Q30,68.07,30,68c0-.07.05-.11.14-.11a.73.73,0,0,0,.5-.14.65.65,0,0,0,.21-.43q0-.3,0-1.29c0-1,0-1.91-.09-2.57a5.8,5.8,0,0,0-.88,0,1.14,1.14,0,0,0-.53.28,1.68,1.68,0,0,0-.41.58c0,.09-.09.14-.14.14s-.13,0-.13-.11,0-.19.05-.49S28.76,63.36,28.8,63.16Z"/><path class="cls-2" d="M34.59,63.18l.54,0,.48,0,1.14,0c.1,0,.15,0,.15.1s0,.09-.13.1a.79.79,0,0,0-.39.11.67.67,0,0,0-.16.37,10.86,10.86,0,0,0,0,1.31c0,.78,0,1.38,0,1.8a1.66,1.66,0,0,0,.15.79.43.43,0,0,0,.37.15c.12,0,.18,0,.18.1s-.06.13-.19.13h-.17c-.46,0-.78,0-.95,0a8.09,8.09,0,0,0-.82,0h-.2c-.09,0-.14,0-.14-.1s0-.09.12-.1a.63.63,0,0,0,.42-.18,1.29,1.29,0,0,0,.13-.65c0-.34,0-.88,0-1.6s0-1.27,0-1.53A.86.86,0,0,0,35,63.5a.8.8,0,0,0-.36-.11c-.1,0-.14,0-.14-.11S34.5,63.18,34.59,63.18Z"/><path class="cls-2" d="M38.65,63.19c1.19,1.34,2.17,2.42,3,3.24,0-.17,0-.28,0-.33V64.64a3.26,3.26,0,0,0-.06-.75.59.59,0,0,0-.25-.35.86.86,0,0,0-.45-.15c-.09,0-.14,0-.14-.11s.05-.11.13-.11H41a5.18,5.18,0,0,0,.62,0c.34,0,.6,0,.78,0h.19c.09,0,.14,0,.14.11s-.07.1-.19.12a.79.79,0,0,0-.44.19.93.93,0,0,0-.2.69l0,2.09,0,1.58c0,.13,0,.2-.12.2l-.08,0s-.2-.19-.51-.51-.77-.84-1.38-1.53-1-1.18-1.29-1.47v1.86a6.42,6.42,0,0,0,0,.85.58.58,0,0,0,.29.45.93.93,0,0,0,.44.14c.08,0,.13,0,.13.09s0,.11-.14.11h-.21a4.45,4.45,0,0,0-.57,0,7.51,7.51,0,0,0-.8,0,1.08,1.08,0,0,1-.22,0q-.15,0-.15-.12c0-.06.08-.09.24-.11a.54.54,0,0,0,.52-.29,1.84,1.84,0,0,0,.11-.69c0-1.28,0-2,0-2.34a1.52,1.52,0,0,0-.27-.77,1,1,0,0,0-.59-.41c-.1,0-.15,0-.15-.11s.05-.13.15-.13h1.31Z"/><path class="cls-2" d="M45.86,63.13a2.75,2.75,0,0,1,1.31.3,2.39,2.39,0,0,1,.9.86,2.46,2.46,0,0,1,.34,1.24,2.56,2.56,0,0,1-.78,1.84,2.52,2.52,0,0,1-1.92.8,2.56,2.56,0,0,1-1.77-.66,2.26,2.26,0,0,1-.74-1.79A2.49,2.49,0,0,1,44,63.89,2.57,2.57,0,0,1,45.86,63.13Zm1.29,2.51A3,3,0,0,0,46.77,64a1.1,1.1,0,0,0-1.93,0,3.07,3.07,0,0,0-.38,1.68,3.11,3.11,0,0,0,.37,1.67,1.08,1.08,0,0,0,1,.59,1.18,1.18,0,0,0,1-.53A2.9,2.9,0,0,0,47.15,65.64Z"/><path class="cls-2" d="M55,63.53l.17-.21c.06-.1.12-.15.16-.15a.11.11,0,0,1,.1,0,.85.85,0,0,1,0,.23l.07,1.15v.15q0,.15-.12.15c-.05,0-.09,0-.13-.12a3.18,3.18,0,0,0-.54-.87,1.23,1.23,0,0,0-1-.48,1.13,1.13,0,0,0-.75.25,1.77,1.77,0,0,0-.47.71,3.08,3.08,0,0,0-.17,1.07,2.79,2.79,0,0,0,.47,1.7,1.43,1.43,0,0,0,1.18.63,1.74,1.74,0,0,0,1.39-.91c0-.08.1-.11.15-.11a.1.1,0,0,1,.11.11c0,.17-.19.43-.58.78a2.07,2.07,0,0,1-1.46.53,2.39,2.39,0,0,1-1.84-.71,2.49,2.49,0,0,1-.67-1.77,2.64,2.64,0,0,1,.68-1.81,2.21,2.21,0,0,1,1.72-.77A3.13,3.13,0,0,1,55,63.53Z"/><path class="cls-2" d="M60.06,63.23c.08.39.16.77.23,1.16,0,.07,0,.1-.1.1s-.09,0-.14-.1a2.23,2.23,0,0,0-.7-.73,1.85,1.85,0,0,0-.91-.18,3.31,3.31,0,0,0-.64.06A12.56,12.56,0,0,0,57.73,65c0,.09,0,.24,0,.45H58a1.22,1.22,0,0,0,.45-.07A.65.65,0,0,0,58.8,65a1.29,1.29,0,0,0,.15-.3c0-.08.06-.12.11-.12s.11,0,.11.09,0,0,0,.06a11.66,11.66,0,0,0,0,1.37,2.33,2.33,0,0,0,0,.29.2.2,0,0,1,0,.07c0,.07,0,.1-.12.1s-.09-.07-.12-.2a.79.79,0,0,0-.34-.52,1.59,1.59,0,0,0-.83-.19c0,.42,0,.69,0,.82a8.71,8.71,0,0,0,0,1,.34.34,0,0,0,.18.26,1.12,1.12,0,0,0,.56.1,1.86,1.86,0,0,0,1.85-.9c0-.08.09-.12.14-.12s.1,0,.1.09a.44.44,0,0,1,0,.15l-.24,1.06H59c-.38,0-.73,0-1.06,0l-.76,0c-.21,0-.52,0-.94,0H56.1c-.11,0-.17,0-.17-.11s0-.1.14-.1a.52.52,0,0,0,.48-.2,1.55,1.55,0,0,0,.13-.79l0-1.91c0-.65,0-1.05,0-1.2a.42.42,0,0,0-.13-.3,1,1,0,0,0-.39-.12c-.08,0-.12,0-.12-.11s.05-.11.14-.11l.89,0Z"/><path class="cls-2" d="M63.68,65.6a1.71,1.71,0,0,1,.82.3,1.5,1.5,0,0,1,.48.92,2.44,2.44,0,0,0,.33.85.65.65,0,0,0,.49.23c.12,0,.18,0,.18.11s-.1.11-.29.11l-1.42,0a1.43,1.43,0,0,1-.31-.79,5.23,5.23,0,0,0-.21-1,.74.74,0,0,0-.33-.43,1,1,0,0,0-.52-.13h-.23c0,.87,0,1.4,0,1.6a.66.66,0,0,0,.12.44.59.59,0,0,0,.42.14c.11,0,.17,0,.17.11s0,.1-.15.1l-1.13,0-.59,0-.42,0c-.1,0-.15,0-.15-.11s0-.1.13-.1a.7.7,0,0,0,.38-.1c.12-.07.18-.37.18-.88v-2a4.89,4.89,0,0,0-.09-1.26c-.06-.15-.22-.23-.49-.23-.1,0-.15,0-.15-.11s.07-.11.2-.11c.7,0,1.29,0,1.77,0,.22,0,.41,0,.58,0a2.28,2.28,0,0,1,1.32.33,1,1,0,0,1,.48.88A1,1,0,0,1,65,65a1.51,1.51,0,0,1-.57.43A2.87,2.87,0,0,1,63.68,65.6Zm-1-.16h.14a1.82,1.82,0,0,0,.65-.12.79.79,0,0,0,.47-.38,1.25,1.25,0,0,0,.13-.57,1,1,0,0,0-.27-.72,1,1,0,0,0-.71-.26,1.68,1.68,0,0,0-.41.07Z"/><path class="cls-2" d="M66.12,63.16c1.29,0,2.23.05,2.85.05.47,0,1,0,1.54,0l.49,0h.25c0,.1,0,.31.07.62l.05.59c0,.09,0,.14-.12.14s-.12-.06-.17-.18a1.76,1.76,0,0,0-.37-.51,1.08,1.08,0,0,0-.51-.29,5.05,5.05,0,0,0-1-.07,13.9,13.9,0,0,0-.06,1.42q0,.87,0,1.68a5.87,5.87,0,0,0,.09,1,.38.38,0,0,0,.16.24,1.38,1.38,0,0,0,.54.11c.1,0,.14,0,.14.1s0,.11-.12.11h-.1l-.77,0H68.06l-.47,0h-.23a.08.08,0,0,1-.08-.09c0-.07,0-.11.14-.11a.7.7,0,0,0,.49-.14.65.65,0,0,0,.21-.43c0-.2,0-.63,0-1.29,0-1,0-1.91-.1-2.57a5.8,5.8,0,0,0-.88,0,1.19,1.19,0,0,0-.53.28,1.83,1.83,0,0,0-.41.58c0,.09-.09.14-.14.14s-.13,0-.13-.11,0-.19,0-.49S66.08,63.36,66.12,63.16Z"/><path class="cls-2" d="M74.36,63.13a2.75,2.75,0,0,1,1.31.3,2.39,2.39,0,0,1,.9.86,2.46,2.46,0,0,1,.34,1.24,2.56,2.56,0,0,1-.78,1.84,2.52,2.52,0,0,1-1.92.8,2.6,2.6,0,0,1-1.78-.66,2.29,2.29,0,0,1-.73-1.79,2.49,2.49,0,0,1,.76-1.83A2.57,2.57,0,0,1,74.36,63.13Zm1.29,2.51A3,3,0,0,0,75.27,64a1.14,1.14,0,0,0-1-.57,1.13,1.13,0,0,0-1,.57A3.07,3.07,0,0,0,73,65.64a3.21,3.21,0,0,0,.36,1.67,1.1,1.1,0,0,0,1,.59,1.18,1.18,0,0,0,1-.53A2.9,2.9,0,0,0,75.65,65.64Z"/><path class="cls-2" d="M81.13,65.79V67.2a.94.94,0,0,0,.12.58.54.54,0,0,0,.38.13l.22,0a.1.1,0,0,1,0,.09c0,.07-.07.1-.21.1l-.45,0-.66,0-.57,0-.44,0c-.08,0-.12,0-.12-.1s.07-.1.21-.12a.53.53,0,0,0,.28-.1.49.49,0,0,0,.13-.27,8.28,8.28,0,0,0,0-1V63.9a.6.6,0,0,0-.11-.37.49.49,0,0,0-.41-.15c-.08,0-.13,0-.13-.1s.08-.12.23-.12h.58l1.51,0a2.73,2.73,0,0,1,1.6.34,1.15,1.15,0,0,1,.46,1,1.2,1.2,0,0,1-.49,1,2.74,2.74,0,0,1-1.59.37Zm0-.26.33,0a1.08,1.08,0,0,0,.88-.36,1.3,1.3,0,0,0,.29-.84.87.87,0,0,0-.27-.7,1,1,0,0,0-.66-.23,3.92,3.92,0,0,0-.57.06Z"/><path class="cls-2" d="M85.83,63.06h.25q.48,1.06,1.38,3.33A8.77,8.77,0,0,0,88,67.66a.69.69,0,0,0,.5.27c.07,0,.11,0,.11.1s0,.11-.15.11l-.4,0-.65,0-.66,0-.41,0c-.11,0-.17,0-.17-.1s0-.09.12-.1c.3,0,.46-.14.46-.36a2.2,2.2,0,0,0-.14-.54,6.39,6.39,0,0,0-.28-.72H84.81a4.63,4.63,0,0,0-.32,1.15.36.36,0,0,0,.16.32.75.75,0,0,0,.35.13c.09,0,.14,0,.14.12s0,.09-.16.09h-.31l-.47,0a3.36,3.36,0,0,0-.56,0h-.11c-.09,0-.13,0-.13-.11s0-.09.09-.11a1.08,1.08,0,0,0,.34-.15,1.15,1.15,0,0,0,.28-.36,6.94,6.94,0,0,0,.35-.84C84.76,65.7,85.22,64.53,85.83,63.06Zm-.27,1.29L84.92,66l1.31,0c-.07-.2-.17-.46-.32-.8Z"/><path class="cls-2" d="M91.58,65.6a1.71,1.71,0,0,1,.82.3,1.55,1.55,0,0,1,.48.92,2.44,2.44,0,0,0,.33.85.65.65,0,0,0,.49.23c.12,0,.18,0,.18.11s-.1.11-.29.11l-1.42,0a1.43,1.43,0,0,1-.31-.79,6.11,6.11,0,0,0-.21-1,.78.78,0,0,0-.33-.43,1,1,0,0,0-.52-.13h-.23c0,.87,0,1.4,0,1.6a.66.66,0,0,0,.12.44.59.59,0,0,0,.42.14c.11,0,.17,0,.17.11s-.05.1-.15.1l-1.14,0-.58,0-.42,0c-.1,0-.15,0-.15-.11s0-.1.13-.1a.7.7,0,0,0,.38-.1c.12-.07.18-.37.18-.88v-2a4.89,4.89,0,0,0-.09-1.26c-.06-.15-.22-.23-.49-.23-.1,0-.15,0-.15-.11s.07-.11.2-.11c.7,0,1.29,0,1.77,0,.22,0,.41,0,.58,0a2.3,2.3,0,0,1,1.32.33A1,1,0,0,1,92.93,65a1.41,1.41,0,0,1-.56.43A3,3,0,0,1,91.58,65.6Zm-1-.16h.14a1.87,1.87,0,0,0,.65-.12.79.79,0,0,0,.47-.38,1.25,1.25,0,0,0,.13-.57,1,1,0,0,0-.27-.72,1,1,0,0,0-.71-.26,1.68,1.68,0,0,0-.41.07Z"/><path class="cls-2" d="M96.41,63.06h.25q.5,1.06,1.38,3.33a7.41,7.41,0,0,0,.57,1.27.65.65,0,0,0,.49.27c.07,0,.11,0,.11.1s0,.11-.14.11l-.41,0-.65,0-.66,0-.41,0c-.11,0-.17,0-.17-.1s0-.09.12-.1c.31,0,.46-.14.46-.36a2.2,2.2,0,0,0-.14-.54,4.92,4.92,0,0,0-.28-.72H95.39a4.63,4.63,0,0,0-.32,1.15.39.39,0,0,0,.16.32.75.75,0,0,0,.35.13c.09,0,.14,0,.14.12s0,.09-.15.09h-.31l-.48,0a3.24,3.24,0,0,0-.55,0h-.11c-.1,0-.14,0-.14-.11s0-.09.09-.11a1.27,1.27,0,0,0,.35-.15,1.32,1.32,0,0,0,.27-.36,5.61,5.61,0,0,0,.35-.84C95.34,65.7,95.8,64.53,96.41,63.06Zm-.26,1.29L95.5,66l1.31,0c-.07-.2-.17-.46-.32-.8S96.22,64.55,96.15,64.35Z"/><path class="cls-2" d="M103.71,63.06H104q.48,1.06,1.38,3.33a8.77,8.77,0,0,0,.56,1.27.67.67,0,0,0,.49.27c.08,0,.12,0,.12.1s0,.11-.15.11l-.4,0-.65,0-.67,0-.4,0c-.11,0-.17,0-.17-.1s0-.09.12-.1q.45,0,.45-.36a2,2,0,0,0-.13-.54,6.39,6.39,0,0,0-.28-.72H102.7a4.63,4.63,0,0,0-.32,1.15.36.36,0,0,0,.16.32.71.71,0,0,0,.34.13c.1,0,.14,0,.14.12s0,.09-.15.09h-.31l-.47,0a3.36,3.36,0,0,0-.56,0h-.11c-.09,0-.14,0-.14-.11s0-.09.09-.11a1,1,0,0,0,.35-.15,1.32,1.32,0,0,0,.27-.36,4.71,4.71,0,0,0,.35-.84C102.65,65.7,103.11,64.53,103.71,63.06Zm-.26,1.29L102.81,66l1.31,0c-.07-.2-.18-.46-.32-.8S103.53,64.55,103.45,64.35Z"/><path class="cls-2" d="M111.62,63.36a.49.49,0,0,0,.09-.15c0-.07.08-.11.13-.11s.11,0,.12.16l.13,1,0,.13a.09.09,0,0,1-.1.1.12.12,0,0,1-.11,0,1.08,1.08,0,0,1-.13-.23,1.51,1.51,0,0,0-.52-.59,1.25,1.25,0,0,0-.74-.27.88.88,0,0,0-.6.21.66.66,0,0,0-.24.52.62.62,0,0,0,.23.45,2.27,2.27,0,0,0,.85.38,2.71,2.71,0,0,1,1.34.69,1.38,1.38,0,0,1,.35.92,1.42,1.42,0,0,1-.25.87,2,2,0,0,1-.61.56,1.89,1.89,0,0,1-.91.2,2.61,2.61,0,0,1-.66-.09,3.77,3.77,0,0,1-.69-.27.75.75,0,0,0-.13.22q-.06.15-.15.15c-.06,0-.09-.07-.11-.2l-.1-1.34a.66.66,0,0,1,0-.11.1.1,0,0,1,.11-.11s.11.06.15.18a2.81,2.81,0,0,0,.62.93,1.26,1.26,0,0,0,.9.37,1,1,0,0,0,.7-.26.79.79,0,0,0,.27-.59.72.72,0,0,0-.24-.55,2.66,2.66,0,0,0-.9-.44,4.32,4.32,0,0,1-.93-.39,1.34,1.34,0,0,1-.49-.51,1.3,1.3,0,0,1-.18-.65,1.28,1.28,0,0,1,.45-1,1.76,1.76,0,0,1,1.22-.41A3.77,3.77,0,0,1,111.62,63.36Z"/><path class="cls-2" d="M113,63.16l1.2,0a2.62,2.62,0,0,0,.38,0l.55,0c.13,0,.19,0,.19.1s0,.11-.15.11a.48.48,0,0,0-.39.19,1.43,1.43,0,0,0-.17.72c0,.37,0,.77,0,1.2a6.2,6.2,0,0,0,.1,1.42,1,1,0,0,0,.43.57,1.52,1.52,0,0,0,.87.22,1.07,1.07,0,0,0,1.22-1,10.54,10.54,0,0,0,.11-1.86,3.2,3.2,0,0,0-.13-1.12.48.48,0,0,0-.43-.33c-.14,0-.22-.06-.22-.13s.06-.11.18-.11l.29,0,.43,0,.46,0h.27c.12,0,.19,0,.19.11s0,.09-.14.1a.53.53,0,0,0-.33.17.87.87,0,0,0-.2.51c0,.23,0,.84,0,1.81a3.7,3.7,0,0,1-.19,1.4,1.4,1.4,0,0,1-.67.67,2.81,2.81,0,0,1-1.2.24,4.57,4.57,0,0,1-1-.1,1.66,1.66,0,0,1-.64-.3,1.29,1.29,0,0,1-.35-.47,2.29,2.29,0,0,1-.1-.79v-2a4.27,4.27,0,0,0,0-.68.61.61,0,0,0-.15-.36.59.59,0,0,0-.3-.1.49.49,0,0,1-.16,0,.09.09,0,0,1,0-.08C112.82,63.19,112.88,63.16,113,63.16Z"/><path class="cls-2" d="M120.37,63.06h.25q.5,1.06,1.38,3.33a7.41,7.41,0,0,0,.57,1.27.65.65,0,0,0,.49.27c.07,0,.11,0,.11.1s0,.11-.14.11l-.41,0-.65,0-.66,0-.41,0c-.11,0-.17,0-.17-.1s0-.09.12-.1c.31,0,.46-.14.46-.36a2.2,2.2,0,0,0-.14-.54,4.92,4.92,0,0,0-.28-.72h-1.54a4.63,4.63,0,0,0-.32,1.15.39.39,0,0,0,.16.32.75.75,0,0,0,.35.13c.09,0,.14,0,.14.12s-.05.09-.15.09h-.32l-.47,0a3.24,3.24,0,0,0-.55,0h-.12c-.09,0-.13,0-.13-.11s0-.09.09-.11a1.27,1.27,0,0,0,.35-.15,1.32,1.32,0,0,0,.27-.36,6.94,6.94,0,0,0,.35-.84C119.3,65.7,119.76,64.53,120.37,63.06Zm-.26,1.29L119.46,66l1.31,0c-.07-.2-.17-.46-.32-.8S120.18,64.55,120.11,64.35Z"/><path class="cls-2" d="M128.14,68.16l-1.33,0h-1.3a.78.78,0,0,1-.21,0,.1.1,0,0,1,0-.09c0-.08,0-.11.16-.11a.73.73,0,0,0,.44-.11.53.53,0,0,0,.18-.38c0-.18,0-.55.07-1.11s0-1.06,0-1.52a4,4,0,0,0-.1-1.21c-.06-.15-.21-.23-.46-.24-.09,0-.14-.05-.14-.11s0-.1.12-.1l.48,0c.3,0,.51,0,.63,0l1.4,0a3.55,3.55,0,0,1,1.36.27,2.15,2.15,0,0,1,1,.88,2.47,2.47,0,0,1,.38,1.38,2.52,2.52,0,0,1-.22,1.06,2.21,2.21,0,0,1-.65.83,2.17,2.17,0,0,1-.84.45A4.14,4.14,0,0,1,128.14,68.16Zm-.25-.27a1.52,1.52,0,0,0,1.23-.54,2.4,2.4,0,0,0,.45-1.56,2.75,2.75,0,0,0-.49-1.69,1.61,1.61,0,0,0-1.38-.67,1.13,1.13,0,0,0-.37,0,.15.15,0,0,0-.07.07s0,.3-.05.83l0,1.26c0,.31,0,.69,0,1.15a3.85,3.85,0,0,0,0,.71.49.49,0,0,0,.2.3A.87.87,0,0,0,127.89,67.89Z"/><path class="cls-2" d="M134.21,63.13a2.75,2.75,0,0,1,1.31.3,2.39,2.39,0,0,1,.9.86,2.45,2.45,0,0,1,.33,1.24,2.68,2.68,0,0,1-2.69,2.64,2.6,2.6,0,0,1-1.78-.66,2.29,2.29,0,0,1-.74-1.79,2.5,2.5,0,0,1,.77-1.83A2.57,2.57,0,0,1,134.21,63.13Zm1.29,2.51a3,3,0,0,0-.38-1.68,1.14,1.14,0,0,0-1-.57,1.12,1.12,0,0,0-1,.57,3,3,0,0,0-.38,1.68,3.21,3.21,0,0,0,.36,1.67,1.1,1.1,0,0,0,1,.59,1.19,1.19,0,0,0,.95-.53A2.9,2.9,0,0,0,135.5,65.64Z"/><path class="cls-2" d="M139.23,63.06h.25q.5,1.06,1.38,3.33a9.59,9.59,0,0,0,.57,1.27.67.67,0,0,0,.49.27c.08,0,.11,0,.11.1s0,.11-.14.11l-.4,0-.65,0-.67,0-.4,0c-.12,0-.17,0-.17-.1s0-.09.12-.1q.45,0,.45-.36A2,2,0,0,0,140,67a4.9,4.9,0,0,0-.29-.72h-1.53a4.21,4.21,0,0,0-.32,1.15.36.36,0,0,0,.16.32.71.71,0,0,0,.34.13c.1,0,.14,0,.14.12s0,.09-.15.09h-.31l-.47,0a3.36,3.36,0,0,0-.56,0h-.11c-.09,0-.14,0-.14-.11s0-.09.09-.11a1,1,0,0,0,.35-.15,1.32,1.32,0,0,0,.27-.36,4.71,4.71,0,0,0,.35-.84C138.17,65.7,138.63,64.53,139.23,63.06ZM139,64.35,138.33,66l1.31,0c-.07-.2-.18-.46-.32-.8S139.05,64.55,139,64.35Z"/><path class="cls-2" d="M144.87,68.18a2.38,2.38,0,0,1-2.47-2.48,2.61,2.61,0,0,1,.7-1.82,2.21,2.21,0,0,1,1.7-.76,3.16,3.16,0,0,1,1.49.41l.16-.21c.07-.1.12-.15.17-.15s.08,0,.09,0a.57.57,0,0,1,0,.23l.08,1.15v.15q0,.15-.12.15t-.12-.12a3.25,3.25,0,0,0-.55-.87,1.19,1.19,0,0,0-1-.48,1.11,1.11,0,0,0-.75.25,1.67,1.67,0,0,0-.47.71,3.08,3.08,0,0,0-.17,1.07,2.79,2.79,0,0,0,.47,1.7,1.4,1.4,0,0,0,1.17.63,1.73,1.73,0,0,0,1.39-.91c.06-.08.1-.11.15-.11s.12,0,.12.11-.11.29-.33.53a2.39,2.39,0,0,1-.7.55,2.17,2.17,0,0,1-.73.22l-.1.2a.64.64,0,0,1,.4.13.42.42,0,0,1,.18.37.75.75,0,0,1-.17.46,1,1,0,0,1-.43.31,2.25,2.25,0,0,1-.76.1.85.85,0,0,1-.29,0,.11.11,0,0,1-.07-.11c0-.07.07-.11.2-.11a1.06,1.06,0,0,0,.5-.11.35.35,0,0,0,.2-.3c0-.15-.11-.24-.34-.27C144.67,68.56,144.79,68.35,144.87,68.18Z"/><path class="cls-2" d="M149.58,63.06h.25q.48,1.06,1.38,3.33a7.41,7.41,0,0,0,.57,1.27.65.65,0,0,0,.49.27c.07,0,.11,0,.11.1s0,.11-.15.11l-.4,0-.65,0-.66,0-.41,0c-.11,0-.17,0-.17-.1s0-.09.12-.1c.3,0,.46-.14.46-.36a2.2,2.2,0,0,0-.14-.54,6.39,6.39,0,0,0-.28-.72h-1.54a4.63,4.63,0,0,0-.32,1.15.39.39,0,0,0,.16.32.75.75,0,0,0,.35.13c.09,0,.14,0,.14.12s0,.09-.15.09h-.32l-.47,0a3.24,3.24,0,0,0-.55,0h-.12c-.09,0-.13,0-.13-.11s0-.09.09-.11a1.08,1.08,0,0,0,.34-.15,1.15,1.15,0,0,0,.28-.36,6.94,6.94,0,0,0,.35-.84C148.51,65.7,149,64.53,149.58,63.06Zm.62-.32a1.21,1.21,0,0,1-.51-.17,1.31,1.31,0,0,0-.48-.18c-.14,0-.23.1-.26.3,0,0,0,0,0,0h-.19c-.06,0-.09,0-.09-.05a1.08,1.08,0,0,1,.19-.65.59.59,0,0,1,.53-.26,1.21,1.21,0,0,1,.55.18,1.11,1.11,0,0,0,.41.17c.17,0,.26-.1.27-.29a.08.08,0,0,1,0-.06h.14c.09,0,.13,0,.13.07a1.1,1.1,0,0,1-.17.63A.58.58,0,0,1,150.2,62.74Zm-.88,1.61L148.67,66,150,66c-.07-.2-.17-.46-.32-.8S149.39,64.55,149.32,64.35Z"/><path class="cls-2" d="M155.4,63.13a2.75,2.75,0,0,1,1.31.3,2.39,2.39,0,0,1,.9.86,2.46,2.46,0,0,1,.34,1.24,2.56,2.56,0,0,1-.78,1.84,2.52,2.52,0,0,1-1.91.8,2.56,2.56,0,0,1-1.78-.66,2.26,2.26,0,0,1-.74-1.79,2.49,2.49,0,0,1,.76-1.83A2.57,2.57,0,0,1,155.4,63.13Zm1.29,2.51a3,3,0,0,0-.38-1.68,1.1,1.1,0,0,0-1.93,0,3.07,3.07,0,0,0-.38,1.68,3.11,3.11,0,0,0,.37,1.67,1.08,1.08,0,0,0,1,.59,1.18,1.18,0,0,0,.95-.53A2.9,2.9,0,0,0,156.69,65.64Z"/><path class="cls-3" d="M7,40.85v-25c0-2.05-2-2.21-2-3.17,0-.44.68-.36.92-.36,2.89,0,6.41-1.16,8.82-1.16.64,0,.88.52.88,1.08V24a7.28,7.28,0,0,1,5.61-2.2c6,0,8.41,4.48,8.41,9.93,0,6.58-3.44,10.5-10.09,10.5a12.2,12.2,0,0,1-5-1,4.52,4.52,0,0,0-1.77-.4c-1.64,0-3.12,1-4.88,1A.85.85,0,0,1,7,40.85Zm8.66-1.4a2.68,2.68,0,0,0,1,.2c2.6,0,4.37-3,4.37-8.7,0-3.56-.68-6.25-2.53-6.25-1.52,0-2.88,1.84-2.88,5.57Z"/><path class="cls-3" d="M43,21.78c7.21,0,12,3.92,12,10S50.2,42.21,43,42.21,31,38.12,31,32,35.77,21.78,43,21.78Zm0,18.47c1.8,0,3-3.45,3-8.42s-1.16-8.09-3-8.09S40,27.07,40,32,41.18,40.25,43,40.25Z"/><path class="cls-4" d="M76.14,12l13,34.6c1.07,2.93,4.4,2.93,4.4,4.4,0,.39-.16.56-.56.56H75.58c-.4,0-.73-.17-.73-.56,0-1.47,2.37-1.47,1.24-4.4l-2.66-7.11H62.82L60,46.64c-1.13,2.93,1.53,2.93,1.53,4.4,0,.39-.34.56-.74.56H53.12c-.4,0-.57-.17-.57-.56,0-1.47,3.33-1.47,4.46-4.4L70.56,12a2.8,2.8,0,0,1,2.82-1.86A2.7,2.7,0,0,1,76.14,12ZM72.42,36.76,68.24,25.64,63.9,36.76Z"/><path class="cls-4" d="M99,48.88s0-.08,0-.12c-6-.48-9.78-4.16-9.78-10.3,0-6.65,4.49-10.09,11.46-10.09,5.73,0,8.65,2.32,8.65,5.61,0,2.84-2.08,3-2.8,3-5.13,0-2.2-6.61-5.09-6.61s-3.2,6.53-3.2,8.26.28,6.29,4.6,6.29c4,0,3.69-4,5.53-4,1,0,1.21,1.08,1.21,1.72,0,1.81-2,6.21-9.26,6.21h-.24s0,.08,0,.12l-.08.2a2.25,2.25,0,0,1,1.88,2.37,2.28,2.28,0,0,1-2.44,2.4A2.22,2.22,0,0,1,97.06,52c-.08-.36.12-.52.52-.52s.49.16.65.56.44.64.68.64c.88,0,1.36-.44,1.36-1.16a.81.81,0,0,0-.72-.88c-.8-.12-1-.41-.76-1.13Z"/><path class="cls-4" d="M125.19,48.4c-1.24,0-1.84-.56-1.84-1.8a6.91,6.91,0,0,1-5.41,2.2c-3.89,0-7.09-2.12-7.09-5.41,0-3.56,3.76-6,9.25-6a15.33,15.33,0,0,1,3.25.32c.12-2.4.44-7.41-2.6-7.41-3.49,0-.57,6.61-5.7,6.61-.72,0-2.8-.12-2.8-3,0-3.29,2.93-5.61,9.22-5.61,7.61,0,10.49,3.44,10.49,10.09v6.42c0,2.08,2,2.16,2,3.16,0,.24-.12.36-.4.36Zm-7.57-23.52c-.28,0-.4-.12-.36-.4a2.74,2.74,0,0,1,2.6-2.68c1.73,0,4.09,1.48,5.41,1.48a1,1,0,0,0,1.12-.92.43.43,0,0,1,.45-.36q.42,0,.36.36c-.12,1.28-.73,2.88-2.53,2.88s-4.13-1.48-5.49-1.48a1.08,1.08,0,0,0-1.08.72A.47.47,0,0,1,117.62,24.88Zm5.73,14a2.77,2.77,0,0,0-.8-.12c-1.72,0-3,1.56-3,4.08,0,1.65.56,3,1.45,3s2.4-1.85,2.4-5.57Z"/><path class="cls-4" d="M146.71,28.37c7.21,0,12,3.92,12,10.05s-4.81,10.38-12,10.38-12-4.08-12-10.21S139.5,28.37,146.71,28.37Zm0,18.47c1.8,0,3-3.45,3-8.42s-1.17-8.09-3-8.09-3,3.33-3,8.26S144.91,46.84,146.71,46.84Z"/><rect class="cls-2" x="93.12" y="16.85" width="65.15" height="1.5"/><polygon class="cls-2" points="98.09 23.74 99.11 22.64 93.69 17.6 99.11 12.57 98.09 11.47 91.49 17.6 98.09 23.74"/><rect class="cls-2" x="5.56" y="50.85" width="43.83" height="1.5"/><polygon class="cls-2" points="44.43 57.74 43.4 56.64 48.82 51.6 43.4 46.57 44.43 45.47 51.02 51.6 44.43 57.74"/></svg>