<svg id="Layer_1" data-name="Layer 1" xmlns="http://www.w3.org/2000/svg" viewBox="0 0 116.16 105.16"><defs><style>.cls-1{fill:#dc6f26;}.cls-2{fill:#345366;}</style></defs><title>LOGO BOA ACAO curvas</title><path class="cls-1" d="M20.77,38.78V10.88c0-2.29-2.19-2.47-2.19-3.54,0-.5.76-.41,1-.41,3.22,0,7.16-1.29,9.85-1.29.72,0,1,.58,1,1.2V19.92a8.14,8.14,0,0,1,6.27-2.46c6.67,0,9.4,5,9.4,11.11,0,7.34-3.85,11.73-11.28,11.73a13.55,13.55,0,0,1-5.56-1.08,5.18,5.18,0,0,0-2-.44c-1.83,0-3.49,1.07-5.46,1.07A1,1,0,0,1,20.77,38.78Zm9.68-1.57a3,3,0,0,0,1.16.22c2.91,0,4.88-3.31,4.88-9.72,0-4-.76-7-2.82-7-1.7,0-3.22,2.06-3.22,6.22Z"/><path class="cls-1" d="M61,17.46c8.06,0,13.43,4.39,13.43,11.24S69.1,40.3,61,40.3,47.6,35.73,47.6,28.88,53,17.46,61,17.46ZM61,38.1c2,0,3.31-3.85,3.31-9.4s-1.3-9-3.31-9-3.36,3.72-3.36,9.23S59,38.1,61,38.1Z"/><path class="cls-1" d="M91.72,39.85c-1.39,0-2.06-.63-2.06-2a7.75,7.75,0,0,1-6,2.46c-4.34,0-7.93-2.37-7.93-6,0-4,4.21-6.67,10.35-6.67a16.75,16.75,0,0,1,3.63.36c.13-2.69.49-8.29-2.91-8.29-3.9,0-.63,7.39-6.36,7.39-.81,0-3.14-.13-3.14-3.31,0-3.67,3.27-6.27,10.3-6.27,8.51,0,11.74,3.85,11.74,11.28v7.17c0,2.33,2.19,2.42,2.19,3.54,0,.27-.13.4-.45.4ZM89.66,29.24a3.07,3.07,0,0,0-.9-.14c-1.92,0-3.4,1.75-3.4,4.57C85.36,35.51,86,37,87,37S89.66,35,89.66,30.8Z"/><path class="cls-1" d="M24.27,93.6c-1.39,0-2.06-.63-2.06-2a7.72,7.72,0,0,1-6.05,2.47c-4.34,0-7.93-2.38-7.93-6,0-4,4.21-6.67,10.35-6.67a16.75,16.75,0,0,1,3.63.36c.13-2.69.49-8.29-2.92-8.29-3.89,0-.62,7.39-6.36,7.39-.8,0-3.13-.13-3.13-3.31,0-3.68,3.27-6.27,10.3-6.27,8.51,0,11.73,3.85,11.73,11.28v7.17c0,2.33,2.2,2.42,2.2,3.54,0,.26-.14.4-.45.4ZM22.21,83a3.16,3.16,0,0,0-.9-.13c-1.93,0-3.4,1.75-3.4,4.57,0,1.83.62,3.36,1.61,3.36s2.69-2.06,2.69-6.23Z"/><path class="cls-1" d="M45.85,94.14s0-.09,0-.14C39.23,93.46,35,89.34,35,82.49c0-7.43,5-11.28,12.81-11.28,6.4,0,9.67,2.59,9.67,6.27,0,3.18-2.32,3.31-3.13,3.31-5.73,0-2.46-7.39-5.69-7.39s-3.58,7.3-3.58,9.23.31,7,5.15,7c4.52,0,4.12-4.48,6.18-4.48,1.07,0,1.34,1.21,1.34,1.92,0,2-2.19,7-10.34,7h-.27s0,.09,0,.13L47,94.4a2.52,2.52,0,0,1,2.11,2.65,2.55,2.55,0,0,1-2.73,2.68,2.47,2.47,0,0,1-2.64-2.1c-.09-.4.13-.58.58-.58s.53.18.71.62.5.72.77.72c1,0,1.52-.49,1.52-1.3a.9.9,0,0,0-.81-1c-.89-.14-1.12-.45-.85-1.26Z"/><path class="cls-1" d="M75.15,93.6c-1.39,0-2.06-.63-2.06-2a7.72,7.72,0,0,1-6,2.47c-4.34,0-7.93-2.38-7.93-6,0-4,4.21-6.67,10.35-6.67a16.75,16.75,0,0,1,3.63.36c.13-2.69.49-8.29-2.91-8.29-3.9,0-.63,7.39-6.36,7.39-.81,0-3.14-.13-3.14-3.31,0-3.68,3.27-6.27,10.3-6.27,8.51,0,11.73,3.85,11.73,11.28v7.17c0,2.33,2.2,2.42,2.2,3.54,0,.26-.14.4-.45.4ZM66.68,67.31c-.31,0-.45-.13-.4-.45.18-1.34,1-3,2.91-3s4.57,1.66,6,1.66a1.13,1.13,0,0,0,1.25-1c.09-.27.22-.4.49-.4s.45.13.41.4c-.14,1.43-.81,3.22-2.83,3.22S70,66.06,68.43,66.06a1.2,1.2,0,0,0-1.21.8A.52.52,0,0,1,66.68,67.31ZM73.09,83a3.16,3.16,0,0,0-.9-.13c-1.93,0-3.4,1.75-3.4,4.57,0,1.83.62,3.36,1.61,3.36s2.69-2.06,2.69-6.23Z"/><path class="cls-1" d="M99.2,71.21c8.06,0,13.43,4.39,13.43,11.24s-5.37,11.6-13.43,11.6S85.76,89.48,85.76,82.63,91.14,71.21,99.2,71.21Zm0,20.64c2,0,3.31-3.85,3.31-9.4s-1.3-9-3.31-9-3.36,3.72-3.36,9.23S97.18,91.85,99.2,91.85Z"/><rect class="cls-2" x="11" y="57.27" width="39.02" height="1.5"/><polygon class="cls-2" points="45.05 64.16 44.03 63.06 49.45 58.02 44.03 52.99 45.05 51.89 51.65 58.02 45.05 64.16"/><rect class="cls-2" x="71.07" y="46.81" width="37.9" height="1.5"/><polygon class="cls-2" points="76.04 53.69 77.06 52.59 71.64 47.56 77.06 42.52 76.04 41.42 69.44 47.56 76.04 53.69"/><path class="cls-2" d="M57.73,46.51c5.08-1.94,9.53-.46,11.18,3.86s-.6,8.61-5.69,10.55-9.57.35-11.22-4S52.64,48.45,57.73,46.51ZM62,57.1c1.7-.65,2.26-2.49,1.48-4.54s-2.37-2.92-4.08-2.27-2.32,2.46-1.54,4.49S60.29,57.75,62,57.1Z"/></svg>