<svg id="Layer_1" data-name="Layer 1" xmlns="http://www.w3.org/2000/svg" viewBox="0 0 229.59 230.83"><defs><style>.cls-1{font-size:44.79px;fill:#dc6f26;font-family:BrightSunlist, Bright Sunlist;}.cls-2{fill:none;stroke:#345366;stroke-miterlimit:10;stroke-width:1.5px;}.cls-3{fill:#345366;}</style></defs><title>LOGO BOA ACAO png</title><text class="cls-1" transform="translate(74.02 104.47)">boa<tspan x="-11.56" y="53.75">ação</tspan></text><line class="cls-2" x1="65.81" y1="122.64" x2="104.83" y2="122.64"/><polygon class="cls-3" points="99.86 128.78 98.84 127.68 104.26 122.64 98.84 117.61 99.86 116.51 106.46 122.64 99.86 128.78"/><line class="cls-2" x1="125.88" y1="112.18" x2="163.78" y2="112.18"/><polygon class="cls-3" points="130.85 118.31 131.87 117.22 126.46 112.18 131.87 107.14 130.85 106.05 124.25 112.18 130.85 118.31"/><path class="cls-3" d="M112.54,111.13c5.09-1.94,9.53-.46,11.18,3.86s-.6,8.61-5.68,10.55-9.58.35-11.22-4S107.46,113.07,112.54,111.13Zm4.27,10.6c1.71-.66,2.26-2.5,1.48-4.55s-2.37-2.92-4.08-2.27-2.31,2.46-1.54,4.49S115.11,122.38,116.81,121.73Z"/></svg>