<svg id="Layer_1" data-name="Layer 1" xmlns="http://www.w3.org/2000/svg" viewBox="0 0 171.24 72.29"><defs><style>.cls-1{fill:#345366;}.cls-2{fill:#dd6f27;}.cls-3{fill:#dc6f26;}</style></defs><title>LOGO BOA ACAO curvas</title><path class="cls-1" d="M15.25,63.59a2.72,2.72,0,0,1,1.31.3,2.39,2.39,0,0,1,.9.86A2.36,2.36,0,0,1,17.8,66,2.59,2.59,0,0,1,17,67.83a2.72,2.72,0,0,1-3.7.14,2.29,2.29,0,0,1-.74-1.79,2.49,2.49,0,0,1,.76-1.83A2.59,2.59,0,0,1,15.25,63.59Zm1.29,2.51a3,3,0,0,0-.38-1.68,1.12,1.12,0,0,0-1-.57,1.14,1.14,0,0,0-1,.57,3.07,3.07,0,0,0-.38,1.68,3.11,3.11,0,0,0,.37,1.67,1.09,1.09,0,0,0,1,.59,1.17,1.17,0,0,0,.94-.53A2.9,2.9,0,0,0,16.54,66.1Z"/><path class="cls-1" d="M23.05,68.62l-1.34,0H20.42a.78.78,0,0,1-.21,0,.11.11,0,0,1-.05-.1c0-.07.06-.1.16-.1a.76.76,0,0,0,.45-.11.57.57,0,0,0,.18-.38q0-.27.06-1.11c0-.55,0-1.06,0-1.52a4.38,4.38,0,0,0-.1-1.21c-.06-.15-.22-.23-.47-.24-.09,0-.13-.05-.13-.11s0-.1.12-.1l.48,0c.3,0,.51,0,.62,0l1.41,0a3.46,3.46,0,0,1,1.35.27,2.17,2.17,0,0,1,1,.88,2.55,2.55,0,0,1,.38,1.38,2.52,2.52,0,0,1-.22,1.06,2.21,2.21,0,0,1-.65.83,2.27,2.27,0,0,1-.85.45A4,4,0,0,1,23.05,68.62Zm-.25-.27A1.52,1.52,0,0,0,24,67.81a2.42,2.42,0,0,0,.45-1.56A2.75,2.75,0,0,0,24,64.56a1.61,1.61,0,0,0-1.38-.67,1.08,1.08,0,0,0-.37,0,.19.19,0,0,0-.08.07s0,.3,0,.83l-.05,1.26c0,.31,0,.69,0,1.15a3.61,3.61,0,0,0,.05.71.51.51,0,0,0,.19.3A.94.94,0,0,0,22.8,68.35Z"/><path class="cls-1" d="M30.4,63.69c.08.39.16.77.23,1.15,0,.08,0,.11-.1.11s-.09,0-.14-.1a2.23,2.23,0,0,0-.7-.73,1.85,1.85,0,0,0-.91-.18,3.31,3.31,0,0,0-.64.06,12.56,12.56,0,0,0-.07,1.43c0,.09,0,.24,0,.45h.28a1.22,1.22,0,0,0,.45-.07.65.65,0,0,0,.33-.31,1.29,1.29,0,0,0,.15-.3c0-.08.06-.12.11-.12s.11,0,.11.09,0,0,0,.06a10.68,10.68,0,0,0-.05,1.37,1.23,1.23,0,0,0,0,.29.2.2,0,0,1,0,.07c0,.06,0,.1-.12.1s-.09-.07-.12-.2a.83.83,0,0,0-.34-.52,1.59,1.59,0,0,0-.83-.19c0,.42,0,.69,0,.82,0,.56,0,.9,0,1a.36.36,0,0,0,.19.26,1.1,1.1,0,0,0,.55.1,1.86,1.86,0,0,0,1.86-.9c0-.08.09-.12.14-.12s.1,0,.1.09a.44.44,0,0,1,0,.15l-.24,1.06H29.32c-.38,0-.73,0-1.06,0l-.76,0c-.21,0-.52,0-.94,0h-.12c-.11,0-.17,0-.17-.11s.05-.11.14-.11a.52.52,0,0,0,.48-.19A1.55,1.55,0,0,0,27,67.4l0-1.91c0-.65,0-1,0-1.2a.42.42,0,0,0-.13-.3.74.74,0,0,0-.39-.12c-.08,0-.12,0-.12-.11s.05-.11.14-.11l.89,0Z"/><path class="cls-1" d="M34.16,63.82a.49.49,0,0,0,.09-.15c0-.07.08-.11.13-.11s.11,0,.12.16l.13,1,0,.13a.09.09,0,0,1-.1.1.16.16,0,0,1-.11,0,1.08,1.08,0,0,1-.13-.23,1.51,1.51,0,0,0-.52-.59,1.25,1.25,0,0,0-.74-.27.88.88,0,0,0-.6.21.66.66,0,0,0-.24.52.62.62,0,0,0,.23.45,2.27,2.27,0,0,0,.85.38,2.71,2.71,0,0,1,1.34.69A1.38,1.38,0,0,1,35,67a1.42,1.42,0,0,1-.25.87,2,2,0,0,1-.61.56,1.89,1.89,0,0,1-.91.2,2.61,2.61,0,0,1-.66-.09,3.77,3.77,0,0,1-.69-.27.75.75,0,0,0-.13.22q-.06.15-.15.15c-.06,0-.09-.07-.11-.2l-.1-1.34a.66.66,0,0,1,0-.11.1.1,0,0,1,.11-.11q.08,0,.15.18a2.81,2.81,0,0,0,.62.93,1.26,1.26,0,0,0,.9.37,1,1,0,0,0,.7-.26.79.79,0,0,0,.27-.59.72.72,0,0,0-.24-.55,2.49,2.49,0,0,0-.9-.44,4.1,4.1,0,0,1-.93-.39,1.34,1.34,0,0,1-.49-.51,1.3,1.3,0,0,1-.18-.65,1.28,1.28,0,0,1,.45-1A1.76,1.76,0,0,1,33,63.57,3.47,3.47,0,0,1,34.16,63.82Z"/><path class="cls-1" d="M35.51,63.62c1.28,0,2.23.05,2.85.05.46,0,1,0,1.54,0l.49,0h.25c0,.1,0,.31.07.62l0,.59c0,.09,0,.14-.12.14s-.12-.06-.18-.18a1.57,1.57,0,0,0-.36-.51,1.09,1.09,0,0,0-.51-.29,5.05,5.05,0,0,0-1-.07,13.9,13.9,0,0,0-.06,1.42q0,.87,0,1.68a6,6,0,0,0,.09,1,.38.38,0,0,0,.16.24,1.33,1.33,0,0,0,.54.11c.1,0,.14,0,.14.1s0,.1-.12.1H39.3l-.76,0H37.45l-.47,0h-.23q-.09,0-.09-.09c0-.07.05-.11.14-.11a.73.73,0,0,0,.5-.14.65.65,0,0,0,.21-.43q0-.3,0-1.29c0-1,0-1.91-.09-2.57a5.8,5.8,0,0,0-.88,0,1.14,1.14,0,0,0-.53.28,1.68,1.68,0,0,0-.41.58c0,.09-.09.14-.14.14s-.13,0-.13-.11,0-.19,0-.49S35.47,63.82,35.51,63.62Z"/><path class="cls-1" d="M41.3,63.64l.54,0,.48,0,1.14,0c.1,0,.15,0,.15.1s0,.09-.13.1a.79.79,0,0,0-.39.11.64.64,0,0,0-.16.37,10.86,10.86,0,0,0,0,1.31c0,.78,0,1.38,0,1.8a1.66,1.66,0,0,0,.15.79.43.43,0,0,0,.37.15c.12,0,.18,0,.18.1s-.06.13-.19.13h-.16l-1,0a7.46,7.46,0,0,0-.82,0h-.2c-.09,0-.14,0-.14-.1s0-.09.12-.1a.63.63,0,0,0,.42-.18,1.29,1.29,0,0,0,.13-.65c0-.34,0-.88,0-1.6s0-1.27,0-1.53a.86.86,0,0,0-.13-.48.69.69,0,0,0-.36-.11c-.1,0-.14,0-.14-.11S41.21,63.64,41.3,63.64Z"/><path class="cls-1" d="M45.37,63.65q1.77,2,3,3.23c0-.16,0-.27,0-.32V65.09a3.22,3.22,0,0,0-.06-.74A.59.59,0,0,0,48,64a.86.86,0,0,0-.45-.15c-.09,0-.14-.05-.14-.12s0-.1.13-.1h.18a5.18,5.18,0,0,0,.62,0l.78,0h.19c.09,0,.14,0,.14.1s-.07.11-.19.13a.79.79,0,0,0-.44.19.93.93,0,0,0-.2.69l0,2.09,0,1.58c0,.13,0,.2-.12.2l-.08,0s-.2-.19-.51-.51-.77-.84-1.38-1.53-1-1.18-1.29-1.48v1.87a6.42,6.42,0,0,0,0,.85.58.58,0,0,0,.29.45.93.93,0,0,0,.44.14c.08,0,.13,0,.13.09s0,.11-.14.11H45.8a4.45,4.45,0,0,0-.57,0,7.51,7.51,0,0,0-.8,0,1.08,1.08,0,0,1-.22,0c-.1,0-.14,0-.14-.12s.07-.09.23-.11a.54.54,0,0,0,.52-.29,1.84,1.84,0,0,0,.11-.69c0-1.28,0-2,0-2.34a1.52,1.52,0,0,0-.27-.77.91.91,0,0,0-.59-.41c-.1,0-.15-.06-.15-.11s.05-.13.15-.13h1.32Z"/><path class="cls-1" d="M52.57,63.59a2.75,2.75,0,0,1,1.31.3,2.39,2.39,0,0,1,.9.86A2.46,2.46,0,0,1,55.12,66a2.56,2.56,0,0,1-.78,1.84,2.52,2.52,0,0,1-1.91.8A2.56,2.56,0,0,1,50.65,68a2.26,2.26,0,0,1-.74-1.79,2.49,2.49,0,0,1,.76-1.83A2.57,2.57,0,0,1,52.57,63.59Zm1.29,2.51a3,3,0,0,0-.38-1.68,1.1,1.1,0,0,0-1.93,0,3.07,3.07,0,0,0-.38,1.68,3.21,3.21,0,0,0,.36,1.67,1.1,1.1,0,0,0,1,.59,1.18,1.18,0,0,0,1-.53A2.9,2.9,0,0,0,53.86,66.1Z"/><path class="cls-1" d="M61.66,64l.17-.22c.06-.09.12-.14.16-.14a.11.11,0,0,1,.1,0,.85.85,0,0,1,0,.23l.07,1.15v.15q0,.15-.12.15c-.05,0-.1,0-.13-.12a3.22,3.22,0,0,0-.54-.88,1.24,1.24,0,0,0-1-.47,1.13,1.13,0,0,0-.75.25,1.77,1.77,0,0,0-.47.71A3.08,3.08,0,0,0,59,65.91a2.79,2.79,0,0,0,.47,1.7,1.43,1.43,0,0,0,1.18.63,1.74,1.74,0,0,0,1.39-.91q.07-.12.15-.12c.07,0,.11,0,.11.12s-.19.42-.58.78a2.07,2.07,0,0,1-1.46.53,2.43,2.43,0,0,1-1.84-.71,2.49,2.49,0,0,1-.67-1.77,2.64,2.64,0,0,1,.68-1.81,2.17,2.17,0,0,1,1.72-.77A3.13,3.13,0,0,1,61.66,64Z"/><path class="cls-1" d="M66.77,63.69c.08.39.16.77.23,1.15,0,.08,0,.11-.1.11s-.09,0-.14-.1a2.33,2.33,0,0,0-.69-.73,1.92,1.92,0,0,0-.92-.18,3.31,3.31,0,0,0-.64.06,12.56,12.56,0,0,0-.07,1.43c0,.09,0,.24,0,.45h.28a1.22,1.22,0,0,0,.45-.07.65.65,0,0,0,.33-.31,1.29,1.29,0,0,0,.15-.3c0-.08.06-.12.11-.12s.11,0,.11.09,0,0,0,.06a10.68,10.68,0,0,0-.05,1.37,1.23,1.23,0,0,0,0,.29.2.2,0,0,1,0,.07c0,.06,0,.1-.12.1s-.09-.07-.12-.2a.79.79,0,0,0-.34-.52,1.59,1.59,0,0,0-.83-.19c0,.42,0,.69,0,.82,0,.56,0,.9,0,1a.38.38,0,0,0,.19.26,1.12,1.12,0,0,0,.56.1,1.85,1.85,0,0,0,1.85-.9c0-.08.09-.12.14-.12s.1,0,.1.09a.44.44,0,0,1,0,.15L67,68.61H65.69c-.38,0-.73,0-1.06,0l-.76,0c-.21,0-.52,0-.94,0h-.11c-.12,0-.18,0-.18-.11s0-.11.14-.11a.52.52,0,0,0,.48-.19,1.55,1.55,0,0,0,.13-.79l0-1.91c0-.65,0-1,0-1.2a.42.42,0,0,0-.13-.3.74.74,0,0,0-.39-.12c-.08,0-.12,0-.12-.11s0-.11.14-.11l.89,0Z"/><path class="cls-1" d="M70.39,66.06a1.71,1.71,0,0,1,.82.3,1.5,1.5,0,0,1,.48.92,2.44,2.44,0,0,0,.33.85.65.65,0,0,0,.49.23c.12,0,.18,0,.18.11s-.1.11-.29.11l-1.42,0a1.36,1.36,0,0,1-.3-.79,5.87,5.87,0,0,0-.22-1,.74.74,0,0,0-.33-.43,1,1,0,0,0-.52-.13h-.23c0,.87,0,1.4,0,1.6a.8.8,0,0,0,.12.44.59.59,0,0,0,.42.14c.11,0,.17.05.17.11s0,.1-.15.1l-1.13,0-.59,0-.42,0c-.1,0-.15,0-.15-.11s0-.1.13-.1a.7.7,0,0,0,.38-.11c.12-.06.18-.36.18-.87v-2a4.89,4.89,0,0,0-.09-1.26c-.06-.15-.22-.23-.49-.23-.1,0-.15,0-.15-.11s.07-.11.2-.11c.7,0,1.29,0,1.77,0,.22,0,.41,0,.59,0a2.25,2.25,0,0,1,1.31.33,1,1,0,0,1,.48.88,1,1,0,0,1-.23.65,1.41,1.41,0,0,1-.56.43A3,3,0,0,1,70.39,66.06Zm-1-.16h.14a1.87,1.87,0,0,0,.65-.12.79.79,0,0,0,.47-.38,1.25,1.25,0,0,0,.13-.57,1,1,0,0,0-.27-.72,1,1,0,0,0-.71-.26,1.68,1.68,0,0,0-.41.07Z"/><path class="cls-1" d="M72.83,63.62c1.29,0,2.23.05,2.85.05.47,0,1,0,1.54,0l.49,0H78c0,.1,0,.31.07.62l0,.59c0,.09,0,.14-.12.14s-.12-.06-.18-.18a1.57,1.57,0,0,0-.36-.51,1,1,0,0,0-.51-.29,5.05,5.05,0,0,0-1-.07,13.9,13.9,0,0,0-.06,1.42c0,.58,0,1.14,0,1.68A5.37,5.37,0,0,0,76,68a.38.38,0,0,0,.16.24,1.38,1.38,0,0,0,.54.11c.1,0,.15,0,.15.1s0,.1-.13.1h-.11l-.76,0H74.77l-.47,0h-.23a.08.08,0,0,1-.08-.09c0-.07,0-.11.14-.11a.7.7,0,0,0,.49-.14.65.65,0,0,0,.21-.43c0-.2,0-.63,0-1.29,0-1,0-1.91-.1-2.57a5.8,5.8,0,0,0-.88,0,1.19,1.19,0,0,0-.53.28,1.83,1.83,0,0,0-.41.58c0,.09-.09.14-.14.14s-.13,0-.13-.11,0-.19,0-.49S72.79,63.82,72.83,63.62Z"/><path class="cls-1" d="M81.07,63.59a2.75,2.75,0,0,1,1.31.3,2.39,2.39,0,0,1,.9.86A2.46,2.46,0,0,1,83.62,66a2.56,2.56,0,0,1-.78,1.84,2.52,2.52,0,0,1-1.92.8A2.56,2.56,0,0,1,79.15,68a2.26,2.26,0,0,1-.74-1.79,2.49,2.49,0,0,1,.76-1.83A2.57,2.57,0,0,1,81.07,63.59Zm1.29,2.51A3,3,0,0,0,82,64.42a1.1,1.1,0,0,0-1.93,0,3.07,3.07,0,0,0-.38,1.68A3.21,3.21,0,0,0,80,67.77a1.1,1.1,0,0,0,1,.59,1.18,1.18,0,0,0,.95-.53A2.9,2.9,0,0,0,82.36,66.1Z"/><path class="cls-1" d="M87.84,66.25v1.41a.88.88,0,0,0,.12.57.51.51,0,0,0,.38.14.68.68,0,0,1,.22,0,.1.1,0,0,1,0,.09c0,.07-.07.1-.21.1l-.45,0-.66,0-.57,0-.44,0c-.08,0-.12,0-.12-.11s.07-.09.21-.11a.61.61,0,0,0,.29-.1.57.57,0,0,0,.12-.27,8.37,8.37,0,0,0,0-1c0-.55,0-1,0-1.45V64.36A.66.66,0,0,0,86.7,64a.52.52,0,0,0-.41-.14c-.08,0-.13,0-.13-.1s.08-.12.23-.12H87l1.51,0a2.73,2.73,0,0,1,1.6.34,1.15,1.15,0,0,1,.46,1,1.2,1.2,0,0,1-.49,1,2.72,2.72,0,0,1-1.59.37Zm0-.26.33,0a1.08,1.08,0,0,0,.88-.36,1.3,1.3,0,0,0,.29-.84.87.87,0,0,0-.27-.7,1,1,0,0,0-.66-.23,3.79,3.79,0,0,0-.57.06Z"/><path class="cls-1" d="M92.54,63.52h.25q.48,1.07,1.38,3.33a8.77,8.77,0,0,0,.56,1.27.69.69,0,0,0,.5.27c.07,0,.11,0,.11.09s0,.12-.15.12l-.4,0-.65,0-.66,0-.41,0c-.11,0-.17,0-.17-.11s0-.08.12-.09c.3,0,.46-.14.46-.36a2.09,2.09,0,0,0-.14-.54,6.39,6.39,0,0,0-.28-.72H91.52a4.63,4.63,0,0,0-.32,1.15.39.39,0,0,0,.16.32.75.75,0,0,0,.35.13c.09,0,.14,0,.14.11s0,.1-.15.1h-.32l-.47,0a3.36,3.36,0,0,0-.56,0h-.11c-.09,0-.13,0-.13-.11s0-.09.09-.11a.9.9,0,0,0,.34-.16,1,1,0,0,0,.28-.35,6.94,6.94,0,0,0,.35-.84C91.47,66.16,91.93,65,92.54,63.52Zm-.27,1.29-.64,1.66,1.31,0c-.07-.2-.17-.46-.32-.8Z"/><path class="cls-1" d="M98.29,66.06a1.71,1.71,0,0,1,.82.3,1.55,1.55,0,0,1,.48.92,2.44,2.44,0,0,0,.33.85.65.65,0,0,0,.49.23c.12,0,.17,0,.17.11s-.09.11-.28.11l-1.42,0a1.43,1.43,0,0,1-.31-.79,6.11,6.11,0,0,0-.21-1,.78.78,0,0,0-.33-.43,1,1,0,0,0-.52-.13h-.23c0,.87,0,1.4,0,1.6a.66.66,0,0,0,.12.44.59.59,0,0,0,.42.14c.11,0,.17.05.17.11s0,.1-.15.1l-1.13,0-.59,0-.42,0c-.1,0-.15,0-.15-.11s0-.1.13-.1a.7.7,0,0,0,.38-.11c.12-.06.18-.36.18-.87v-2a4.89,4.89,0,0,0-.09-1.26c-.06-.15-.22-.23-.49-.23-.1,0-.15,0-.15-.11s.06-.11.2-.11c.7,0,1.29,0,1.77,0,.22,0,.41,0,.58,0a2.3,2.3,0,0,1,1.32.33,1,1,0,0,1,.25,1.53,1.41,1.41,0,0,1-.56.43A3,3,0,0,1,98.29,66.06Zm-1-.16h.14a1.87,1.87,0,0,0,.65-.12.74.74,0,0,0,.46-.38,1.15,1.15,0,0,0,.14-.57,1,1,0,0,0-.27-.72,1,1,0,0,0-.71-.26,1.68,1.68,0,0,0-.41.07Z"/><path class="cls-1" d="M103.12,63.52h.25q.5,1.07,1.38,3.33a7.41,7.41,0,0,0,.57,1.27.65.65,0,0,0,.49.27c.07,0,.11,0,.11.09s0,.12-.14.12l-.41,0-.65,0-.66,0-.41,0c-.11,0-.17,0-.17-.11s0-.08.12-.09c.31,0,.46-.14.46-.36a2.09,2.09,0,0,0-.14-.54,4.92,4.92,0,0,0-.28-.72H102.1a4.63,4.63,0,0,0-.32,1.15.39.39,0,0,0,.16.32.75.75,0,0,0,.35.13c.09,0,.14,0,.14.11s-.05.1-.15.1H102l-.48,0a3.24,3.24,0,0,0-.55,0h-.12c-.09,0-.13,0-.13-.11s0-.09.09-.11a1,1,0,0,0,.35-.16,1.11,1.11,0,0,0,.27-.35,6.94,6.94,0,0,0,.35-.84C102.05,66.16,102.51,65,103.12,63.52Zm-.26,1.29-.65,1.66,1.31,0c-.07-.2-.17-.46-.32-.8S102.93,65,102.86,64.81Z"/><path class="cls-1" d="M110.42,63.52h.26q.48,1.07,1.38,3.33a8.77,8.77,0,0,0,.56,1.27.69.69,0,0,0,.49.27q.12,0,.12.09t-.15.12l-.4,0-.65,0-.67,0-.4,0c-.11,0-.17,0-.17-.11s0-.08.12-.09c.3,0,.45-.14.45-.36a2,2,0,0,0-.13-.54,6.39,6.39,0,0,0-.28-.72h-1.54a4.63,4.63,0,0,0-.32,1.15.36.36,0,0,0,.16.32.75.75,0,0,0,.34.13c.1,0,.14,0,.14.11s0,.1-.15.1h-.31l-.47,0a3.36,3.36,0,0,0-.56,0h-.11c-.09,0-.14,0-.14-.11s0-.09.09-.11a.88.88,0,0,0,.35-.16,1,1,0,0,0,.27-.35,4.71,4.71,0,0,0,.35-.84C109.36,66.16,109.82,65,110.42,63.52Zm-.26,1.29-.64,1.66,1.31,0c-.07-.2-.18-.46-.32-.8S110.24,65,110.16,64.81Z"/><path class="cls-1" d="M118.33,63.82a.49.49,0,0,0,.09-.15c0-.07.08-.11.13-.11s.11,0,.12.16l.13,1,0,.13a.09.09,0,0,1-.1.1.16.16,0,0,1-.11,0,1.08,1.08,0,0,1-.13-.23,1.51,1.51,0,0,0-.52-.59,1.25,1.25,0,0,0-.74-.27.88.88,0,0,0-.6.21.66.66,0,0,0-.24.52.62.62,0,0,0,.23.45,2.27,2.27,0,0,0,.85.38,2.8,2.8,0,0,1,1.35.69,1.51,1.51,0,0,1,.09,1.79,2,2,0,0,1-.61.56,1.89,1.89,0,0,1-.91.2,2.61,2.61,0,0,1-.66-.09,3.77,3.77,0,0,1-.69-.27.75.75,0,0,0-.13.22q-.06.15-.15.15c-.06,0-.09-.07-.11-.2l-.1-1.34a.66.66,0,0,1,0-.11.1.1,0,0,1,.11-.11s.11.06.15.18a2.81,2.81,0,0,0,.62.93,1.26,1.26,0,0,0,.9.37,1,1,0,0,0,.7-.26.79.79,0,0,0,.27-.59A.7.7,0,0,0,118,67a2.34,2.34,0,0,0-.89-.44,4.1,4.1,0,0,1-.93-.39,1.34,1.34,0,0,1-.49-.51,1.3,1.3,0,0,1-.18-.65,1.28,1.28,0,0,1,.45-1,1.76,1.76,0,0,1,1.22-.41A3.47,3.47,0,0,1,118.33,63.82Z"/><path class="cls-1" d="M119.69,63.62l1.2,0a2.82,2.82,0,0,0,.39,0l.54,0c.13,0,.19,0,.19.1s-.05.1-.15.11a.48.48,0,0,0-.39.19,1.43,1.43,0,0,0-.17.72c0,.37,0,.77,0,1.2a6.26,6.26,0,0,0,.1,1.42,1,1,0,0,0,.43.57,1.6,1.6,0,0,0,.87.22,1.07,1.07,0,0,0,1.22-1,10.6,10.6,0,0,0,.11-1.87,3.17,3.17,0,0,0-.13-1.11.51.51,0,0,0-.43-.34q-.21,0-.21-.12c0-.08,0-.11.17-.11l.29,0,.43,0,.46,0h.27c.12,0,.19,0,.19.11s0,.09-.14.1a.53.53,0,0,0-.33.17.81.81,0,0,0-.19.51c0,.23-.05.84-.05,1.81a3.7,3.7,0,0,1-.19,1.4,1.4,1.4,0,0,1-.67.67,2.82,2.82,0,0,1-1.2.23,4.61,4.61,0,0,1-1-.09,1.53,1.53,0,0,1-.64-.31,1.18,1.18,0,0,1-.35-.46,2.29,2.29,0,0,1-.1-.79V65a4.27,4.27,0,0,0,0-.68A.61.61,0,0,0,120,64a.7.7,0,0,0-.3-.11l-.16,0a.12.12,0,0,1,0-.08C119.53,63.65,119.59,63.62,119.69,63.62Z"/><path class="cls-1" d="M127.08,63.52h.25q.49,1.07,1.38,3.33a7.41,7.41,0,0,0,.57,1.27.65.65,0,0,0,.49.27c.07,0,.11,0,.11.09s0,.12-.14.12l-.41,0-.65,0-.66,0-.41,0c-.11,0-.17,0-.17-.11s0-.08.12-.09c.31,0,.46-.14.46-.36a2.09,2.09,0,0,0-.14-.54,4.92,4.92,0,0,0-.28-.72h-1.54a4.63,4.63,0,0,0-.32,1.15.39.39,0,0,0,.16.32.75.75,0,0,0,.35.13c.09,0,.14,0,.14.11s0,.1-.15.1h-.31l-.48,0a3.24,3.24,0,0,0-.55,0h-.12c-.09,0-.13,0-.13-.11s0-.09.09-.11a.9.9,0,0,0,.34-.16,1,1,0,0,0,.28-.35,6.94,6.94,0,0,0,.35-.84C126,66.16,126.47,65,127.08,63.52Zm-.26,1.29-.65,1.66,1.31,0c-.07-.2-.17-.46-.32-.8S126.89,65,126.82,64.81Z"/><path class="cls-1" d="M134.85,68.62l-1.33,0h-1.3a.78.78,0,0,1-.21,0,.11.11,0,0,1,0-.1c0-.07.05-.1.16-.1a.73.73,0,0,0,.44-.11.57.57,0,0,0,.18-.38c0-.18.05-.55.07-1.11s0-1.06,0-1.52a4,4,0,0,0-.1-1.21c-.06-.15-.21-.23-.46-.24-.09,0-.14-.05-.14-.11s0-.1.12-.1l.48,0c.3,0,.51,0,.63,0l1.4,0a3.55,3.55,0,0,1,1.36.27,2.15,2.15,0,0,1,1,.88,2.48,2.48,0,0,1,.39,1.38,2.52,2.52,0,0,1-.23,1.06,2.11,2.11,0,0,1-.65.83,2.17,2.17,0,0,1-.84.45A4.14,4.14,0,0,1,134.85,68.62Zm-.25-.27a1.52,1.52,0,0,0,1.23-.54,2.42,2.42,0,0,0,.45-1.56,2.75,2.75,0,0,0-.49-1.69,1.61,1.61,0,0,0-1.38-.67,1.13,1.13,0,0,0-.37,0A.15.15,0,0,0,134,64s0,.3-.05.83l0,1.26c0,.31,0,.69,0,1.15a3.85,3.85,0,0,0,0,.71.52.52,0,0,0,.2.3A.87.87,0,0,0,134.6,68.35Z"/><path class="cls-1" d="M140.92,63.59a2.75,2.75,0,0,1,1.31.3,2.39,2.39,0,0,1,.9.86,2.45,2.45,0,0,1,.33,1.24,2.68,2.68,0,0,1-2.69,2.64A2.6,2.6,0,0,1,139,68a2.29,2.29,0,0,1-.74-1.79,2.5,2.5,0,0,1,.77-1.83A2.57,2.57,0,0,1,140.92,63.59Zm1.29,2.51a3,3,0,0,0-.38-1.68,1.14,1.14,0,0,0-1-.57,1.12,1.12,0,0,0-1,.57,3,3,0,0,0-.38,1.68,3.21,3.21,0,0,0,.36,1.67,1.1,1.1,0,0,0,1,.59,1.19,1.19,0,0,0,.95-.53A3,3,0,0,0,142.21,66.1Z"/><path class="cls-1" d="M145.94,63.52h.26c.32.71.78,1.82,1.37,3.33a9.59,9.59,0,0,0,.57,1.27.67.67,0,0,0,.49.27c.08,0,.11,0,.11.09s0,.12-.14.12l-.4,0-.65,0-.67,0-.4,0c-.11,0-.17,0-.17-.11s0-.08.12-.09c.3,0,.45-.14.45-.36a2,2,0,0,0-.13-.54,4.9,4.9,0,0,0-.29-.72h-1.53a4.21,4.21,0,0,0-.32,1.15.36.36,0,0,0,.16.32.71.71,0,0,0,.34.13c.1,0,.14,0,.14.11s-.05.1-.15.1h-.31l-.47,0a3.36,3.36,0,0,0-.56,0h-.11c-.09,0-.14,0-.14-.11s0-.09.09-.11a.88.88,0,0,0,.35-.16,1.11,1.11,0,0,0,.27-.35,4.71,4.71,0,0,0,.35-.84C144.88,66.16,145.34,65,145.94,63.52Zm-.26,1.29L145,66.47l1.31,0c-.07-.2-.18-.46-.32-.8S145.76,65,145.68,64.81Z"/><path class="cls-1" d="M151.58,68.64a2.36,2.36,0,0,1-2.46-2.48,2.6,2.6,0,0,1,.69-1.82,2.21,2.21,0,0,1,1.7-.76A3.16,3.16,0,0,1,153,64a2.09,2.09,0,0,0,.16-.22c.07-.09.12-.14.17-.14s.08,0,.09,0a.57.57,0,0,1,0,.23l.08,1.15v.15q0,.15-.12.15s-.09,0-.12-.12a3,3,0,0,0-.55-.88,1.21,1.21,0,0,0-1-.47,1.11,1.11,0,0,0-.75.25,1.67,1.67,0,0,0-.47.71,3.08,3.08,0,0,0-.17,1.07,2.79,2.79,0,0,0,.47,1.7,1.4,1.4,0,0,0,1.17.63,1.73,1.73,0,0,0,1.39-.91c.06-.08.1-.12.15-.12a.11.11,0,0,1,.12.12c0,.12-.11.29-.33.53a2.39,2.39,0,0,1-.7.55,2.17,2.17,0,0,1-.73.22l-.1.2a.64.64,0,0,1,.4.13.42.42,0,0,1,.18.37.75.75,0,0,1-.17.46,1,1,0,0,1-.43.31,2.25,2.25,0,0,1-.76.1.85.85,0,0,1-.29,0,.11.11,0,0,1-.07-.11c0-.07.07-.11.2-.11a1.06,1.06,0,0,0,.5-.11.35.35,0,0,0,.2-.3c0-.15-.11-.25-.34-.27C151.38,69,151.5,68.81,151.58,68.64Z"/><path class="cls-1" d="M156.29,63.52h.25c.33.71.78,1.82,1.38,3.33a7.41,7.41,0,0,0,.57,1.27.65.65,0,0,0,.49.27c.07,0,.11,0,.11.09s-.05.12-.14.12l-.41,0-.65,0-.66,0-.41,0c-.11,0-.17,0-.17-.11s0-.08.12-.09c.3,0,.46-.14.46-.36a2.09,2.09,0,0,0-.14-.54,4.92,4.92,0,0,0-.28-.72h-1.54a4.63,4.63,0,0,0-.32,1.15.39.39,0,0,0,.16.32.75.75,0,0,0,.35.13c.09,0,.14,0,.14.11s0,.1-.15.1h-.32l-.47,0a3.24,3.24,0,0,0-.55,0H154c-.09,0-.13,0-.13-.11s0-.09.09-.11a.9.9,0,0,0,.34-.16,1,1,0,0,0,.28-.35,6.94,6.94,0,0,0,.35-.84C155.22,66.16,155.68,65,156.29,63.52Zm.62-.32a1.21,1.21,0,0,1-.51-.17,1.31,1.31,0,0,0-.48-.18c-.14,0-.23.1-.26.3,0,0,0,0,0,0h-.19c-.06,0-.09,0-.09-.05a1.06,1.06,0,0,1,.19-.65.6.6,0,0,1,.53-.27,1.24,1.24,0,0,1,.55.19,1.11,1.11,0,0,0,.41.17c.17,0,.26-.1.27-.29a.08.08,0,0,1,0-.06h.14c.09,0,.13,0,.13.07a1.1,1.1,0,0,1-.17.63A.58.58,0,0,1,156.91,63.2ZM156,64.81l-.65,1.66,1.31,0c-.07-.2-.17-.46-.32-.8S156.1,65,156,64.81Z"/><path class="cls-1" d="M162.11,63.59a2.72,2.72,0,0,1,1.31.3,2.39,2.39,0,0,1,.9.86,2.46,2.46,0,0,1,.34,1.24,2.56,2.56,0,0,1-.78,1.84,2.52,2.52,0,0,1-1.91.8,2.56,2.56,0,0,1-1.78-.66,2.26,2.26,0,0,1-.74-1.79,2.49,2.49,0,0,1,.76-1.83A2.59,2.59,0,0,1,162.11,63.59Zm1.29,2.51a3,3,0,0,0-.38-1.68,1.12,1.12,0,0,0-1-.57,1.14,1.14,0,0,0-1,.57,3.07,3.07,0,0,0-.38,1.68,3.11,3.11,0,0,0,.37,1.67,1.09,1.09,0,0,0,1,.59,1.18,1.18,0,0,0,.95-.53A2.9,2.9,0,0,0,163.4,66.1Z"/><path class="cls-2" d="M13.67,41.31v-25c0-2.05-2-2.21-2-3.17,0-.44.68-.36.92-.36,2.89,0,6.41-1.16,8.82-1.16.64,0,.88.52.88,1.08v11.7a7.29,7.29,0,0,1,5.61-2.2c6,0,8.41,4.48,8.41,9.93,0,6.57-3.44,10.5-10.09,10.5a12.2,12.2,0,0,1-5-1,4.56,4.56,0,0,0-1.77-.4c-1.64,0-3.12,1-4.88,1A.85.85,0,0,1,13.67,41.31Zm8.66-1.4a2.68,2.68,0,0,0,1,.2c2.61,0,4.37-3,4.37-8.7,0-3.57-.68-6.25-2.53-6.25-1.52,0-2.88,1.84-2.88,5.57Z"/><path class="cls-2" d="M49.7,22.24c7.21,0,12,3.92,12,10.05s-4.81,10.38-12,10.38-12-4.09-12-10.22S42.48,22.24,49.7,22.24Zm0,18.47c1.8,0,3-3.45,3-8.42s-1.16-8.09-3-8.09-3,3.32-3,8.25S47.89,40.71,49.7,40.71Z"/><path class="cls-3" d="M82.85,12.5l13,34.6c1.07,2.93,4.4,2.93,4.4,4.4,0,.39-.16.56-.56.56H82.29c-.4,0-.73-.17-.73-.56,0-1.47,2.37-1.47,1.24-4.4L80.15,40H69.53L66.71,47.1C65.58,50,68.24,50,68.24,51.5c0,.39-.34.56-.74.56H59.83c-.4,0-.57-.17-.57-.56,0-1.47,3.33-1.47,4.46-4.4L77.27,12.44a2.8,2.8,0,0,1,2.82-1.86A2.69,2.69,0,0,1,82.85,12.5ZM79.13,37.22,75,26.1,70.61,37.22Z"/><path class="cls-3" d="M105.7,49.34s0-.08,0-.12c-6-.48-9.78-4.17-9.78-10.3,0-6.65,4.49-10.09,11.46-10.09,5.73,0,8.65,2.32,8.65,5.61,0,2.84-2.08,3-2.8,3-5.13,0-2.2-6.61-5.09-6.61S105,37.32,105,39s.28,6.29,4.6,6.29c4,0,3.69-4,5.53-4,1,0,1.21,1.08,1.21,1.72,0,1.8-2,6.21-9.26,6.21h-.24s0,.08,0,.12l-.08.2A2.25,2.25,0,0,1,108.58,52a2.28,2.28,0,0,1-2.44,2.4,2.22,2.22,0,0,1-2.37-1.88c-.08-.36.12-.52.52-.52s.49.16.65.56.44.64.68.64c.88,0,1.36-.44,1.36-1.16a.81.81,0,0,0-.72-.88c-.8-.12-1-.41-.76-1.13Z"/><path class="cls-3" d="M131.9,48.86c-1.24,0-1.84-.56-1.84-1.8a6.91,6.91,0,0,1-5.41,2.2c-3.89,0-7.09-2.12-7.09-5.41,0-3.56,3.76-6,9.25-6a15.33,15.33,0,0,1,3.25.32c.12-2.4.44-7.41-2.61-7.41-3.48,0-.56,6.61-5.68,6.61-.73,0-2.81-.12-2.81-3,0-3.29,2.93-5.61,9.22-5.61,7.61,0,10.49,3.44,10.49,10.09v6.41c0,2.09,2,2.17,2,3.17,0,.24-.12.36-.4.36Zm-7.57-23.52c-.28,0-.4-.12-.36-.4a2.75,2.75,0,0,1,2.6-2.69c1.73,0,4.09,1.49,5.41,1.49a1,1,0,0,0,1.13-.92c.08-.24.2-.36.44-.36s.4.12.36.36c-.12,1.28-.72,2.88-2.53,2.88s-4.13-1.48-5.49-1.48a1.08,1.08,0,0,0-1.08.72A.47.47,0,0,1,124.33,25.34Zm5.73,14a2.77,2.77,0,0,0-.8-.12c-1.73,0-3,1.57-3,4.09,0,1.64.56,3,1.45,3s2.4-1.85,2.4-5.57Z"/><path class="cls-3" d="M153.42,28.83c7.21,0,12,3.92,12,10.05s-4.81,10.38-12,10.38-12-4.09-12-10.22S146.21,28.83,153.42,28.83Zm0,18.47c1.8,0,3-3.45,3-8.42s-1.17-8.09-3-8.09-3,3.33-3,8.25S151.62,47.3,153.42,47.3Z"/><rect class="cls-1" x="99.83" y="17.31" width="65.15" height="1.5"/><polygon class="cls-1" points="104.8 24.2 105.82 23.1 100.4 18.06 105.82 13.03 104.8 11.93 98.2 18.06 104.8 24.2"/><rect class="cls-1" x="12.27" y="51.31" width="43.83" height="1.5"/><polygon class="cls-1" points="51.14 58.2 50.11 57.1 55.53 52.06 50.11 47.03 51.14 45.93 57.73 52.06 51.14 58.2"/></svg>